<svg width="20" height="19" fill="none" xmlns="http://www.w3.org/2000/svg"><path d="M19.286 6.557l-5.9-.825L10.75.593a.852.852 0 00-.317-.301.894.894 0 00-.861 0 .852.852 0 00-.317.301l-2.64 5.139-5.9.825a.85.85 0 00-.418.18.8.8 0 00-.256.364.772.772 0 00-.017.44.795.795 0 00.227.382l4.27 4.003-1.007 5.652a.774.774 0 00.05.438.807.807 0 00.281.346.854.854 0 00.878.061L10 15.755l5.277 2.668a.862.862 0 00.877-.06.807.807 0 00.282-.347.774.774 0 00.05-.438l-1.008-5.652 4.27-4.003a.795.795 0 00.228-.381.772.772 0 00-.017-.44.8.8 0 00-.255-.365.849.849 0 00-.417-.18h-.001z" fill="#7C7C7C"/></svg>