<?xml version="1.0" encoding="utf-8"?>
<!-- Generator: Adobe Illustrator 24.0.2, SVG Export Plug-In . SVG Version: 6.00 Build 0)  -->
<svg version="1.1" id="Layer_1" xmlns="http://www.w3.org/2000/svg" xmlns:xlink="http://www.w3.org/1999/xlink" x="0px" y="0px"
	 width="1262px" height="2187.9px" viewBox="0 0 1262 2187.9" style="enable-background:new 0 0 1262 2187.9;" xml:space="preserve"
	>
<style type="text/css">
	.st0{fill:#FFFFFF;}
	.st1{fill:#7C7C7C;}
</style>
<g>
	<path class="st0" d="M355.7,390.1L64.1,991.8c0.2,2.8,0.3,5.3,0.4,7.5c3.4,66.4,24,316,32.5,424.1c0.3,0.1,0.5,0.1,0.5,0.1
		l265.4-525.1L843,1797.8h234.2L355.7,390.1z"/>
	<path class="st1" d="M687.1,66.5c261.7,0,447.7,5.3,497,6.9l14.1,15.6v33.3c-7.3,7.2-11.6,16.9-11.6,27.6
		c0,10.8,4.3,20.4,11.6,27.3v512.6c0,43.9-24.7,444.2-44.4,765.8c-14.5,235-26.9,438-27.9,468.2c-1.5,53.9-3.7,105.2-4.6,127
		c-4.5,4.1-13,10.3-27.1,16.3c-5.8,0-15.1-0.1-26-0.1c-63.1,0-76.5,2-80.8,2.6c-9.6,1.4-39.9,6.7-58.4,20.7
		c-8.4,3.5-31.7,12.9-63.1,20.4l-2.7,0.6c-5,0.4-17.3,1.1-46.5,1.7c-59.3,1-105.4,3-123.4,5.5l-3.3,0.4l-0.7,0.2
		c-4.6,0.6-23.4,2.3-80.4,2.3c-10.2,0-21.3-0.1-32.9-0.2h-0.2h-0.2c-0.1,0-13.5,0.1-33.1,0.1c-84.6,0-144.9-1.5-161.4-3.9
		c-42.5-6.3-83.7-17.5-100.4-27.2c-3.9-2.3-7.4-4.5-10.8-6.4c-18.2-10.9-32.6-19.5-55.3-25c-2.5-0.6-4.9-1.1-7.1-1.7
		c-7.5-1.7-13.5-3-17.4-5.4c-2.4-1.5-6.2-4.4-10.8-13.4c-8.6-16.7-7.8-29.9-7.5-33.2c1.8-7.8,1.5-21.3-5-58.7v-0.1v-0.1
		c-0.1-0.5-9.9-54.9-11.9-126.2v-1l-0.1-1c-0.1-0.6-6-63.7-5.1-133.8v-1.7l-0.1-1.7c-0.1-1.6-14.5-161.4-17.6-204.2
		c-0.9-13.2-4.2-54-8.4-105.5c-9.9-122.7-24.9-308.2-27.7-363.9c-0.7-14.9-2.5-43.8-4.9-83.9c-9.9-159.7-32.3-534.1-26.5-607.5
		c0.1-0.7,5.2-67.7,13.7-140.5c13.4-7.4,21.4-20.9,21.4-36.6c0-11.6-4-21.8-11.3-29.4l0.7-7.1l22.2-21c14.6-1.4,47.3-4.1,107.2-6.7
		c79.5-3.5,225-7.7,466.2-7.7H687.1z M687.1,35.4c-0.8,0-1.7,0-2.6,0C212.3,35.5,97.7,51.1,97.7,51.1L59.5,87.1l-4.1,41.8
		c0,0,2-0.6,4.3-0.6c3.9,0,9.1,1.6,9.1,10c0,10.3-10.8,11.5-16,11.5c-1.5,0-2.6-0.1-2.6-0.1C39.9,231.9,33.7,313,33.7,313
		c-7.2,92.5,26.8,615.5,31,695.6c4.1,80.1,33,426.3,36.1,470c3.1,43.7,17.6,204.8,17.6,204.8c-1,72.8,5.2,137.2,5.2,137.2
		c2.1,74.9,12.4,131,12.4,131c7.2,41.6,5.2,46.8,5.2,46.8s-5.2,23.9,10.3,54.1c15.5,30.2,34.1,31.2,55.8,36.4
		c21.7,5.2,33,13.5,57.8,28.1c24.8,14.6,76.4,26,111.5,31.2c25.1,3.7,115.9,4.3,165.9,4.3c19.9,0,33.4-0.1,33.4-0.1
		c12.3,0.1,23.3,0.2,33.2,0.2c79.6,0,88.6-3.3,88.6-3.3c15.5-2.1,58.9-4.2,119.8-5.2c60.9-1,55.8-3.1,55.8-3.1
		c43.4-10.4,72.3-23.9,72.3-23.9c6.2-6.2,24.8-13.5,46.5-16.6c13-1.9,49.5-2.3,76.5-2.3c18.1,0,31.9,0.2,31.9,0.2
		c40.3-15.6,51.6-35.4,51.6-35.4s3.1-66.5,5.2-138.3c2.1-71.7,72.3-1158.3,72.3-1234.8s0-532,0-532s-0.1,0-0.2,0
		c-1.6,0-11.4-0.3-11.4-7.9c0-8.2,11.6-8.8,11.6-8.8V77l-31-34.3C1198.3,42.7,997.1,35.4,687.1,35.4z"/>
</g>
</svg>
