<svg width="64" height="63" viewBox="0 0 64 63" fill="none" xmlns="http://www.w3.org/2000/svg">
<circle cx="32" cy="23" r="23" fill="#FFC305"/>
<path d="M32.958 37.334L32.958 9.15666L30.958 9.15666L30.958 37.334L32.958 37.334Z" fill="black"/>
<path d="M43.4669 19.2499L32.5085 8.29152L31.0943 9.70573L42.0527 20.6641L43.4669 19.2499Z" fill="black"/>
<path d="M31.2509 8.29289L20.2925 19.2513L21.7067 20.6655L32.6651 9.70711L31.2509 8.29289Z" fill="black"/>
<path d="M0.993032 60V51.168H1.96503V55.512L1.83303 55.392C1.96903 54.896 2.22903 54.512 2.61303 54.24C2.99703 53.96 3.46103 53.82 4.00503 53.82C4.54103 53.82 5.00903 53.948 5.40903 54.204C5.80903 54.46 6.12103 54.82 6.34503 55.284C6.57703 55.748 6.69303 56.296 6.69303 56.928C6.69303 57.56 6.57703 58.116 6.34503 58.596C6.12103 59.068 5.80503 59.436 5.39703 59.7C4.99703 59.956 4.53303 60.084 4.00503 60.084C3.46103 60.084 2.99703 59.948 2.61303 59.676C2.22903 59.404 1.96903 59.016 1.83303 58.512L1.96503 58.38V60H0.993032ZM3.82503 59.28C4.40903 59.28 4.86503 59.076 5.19303 58.668C5.52103 58.252 5.68503 57.672 5.68503 56.928C5.68503 56.2 5.52103 55.636 5.19303 55.236C4.86503 54.836 4.40903 54.636 3.82503 54.636C3.22503 54.636 2.76503 54.84 2.44503 55.248C2.12503 55.648 1.96503 56.216 1.96503 56.952C1.96503 57.696 2.12503 58.272 2.44503 58.68C2.76503 59.08 3.22503 59.28 3.82503 59.28ZM10.6843 60.084C10.1483 60.084 9.67634 59.96 9.26834 59.712C8.86834 59.456 8.55634 59.096 8.33234 58.632C8.11634 58.16 8.00834 57.608 8.00834 56.976C8.00834 56.344 8.12034 55.792 8.34434 55.32C8.56834 54.848 8.88034 54.48 9.28034 54.216C9.68834 53.952 10.1563 53.82 10.6843 53.82C11.2363 53.82 11.7043 53.956 12.0883 54.228C12.4723 54.5 12.7323 54.888 12.8683 55.392L12.7243 55.488V53.964H13.6843V60H12.7243V58.44L12.8683 58.512C12.7323 59.016 12.4723 59.404 12.0883 59.676C11.7043 59.948 11.2363 60.084 10.6843 60.084ZM10.8763 59.28C11.4683 59.28 11.9243 59.08 12.2443 58.68C12.5643 58.272 12.7243 57.696 12.7243 56.952C12.7243 56.208 12.5603 55.636 12.2323 55.236C11.9123 54.836 11.4603 54.636 10.8763 54.636C10.2843 54.636 9.82034 54.844 9.48434 55.26C9.15634 55.668 8.99234 56.24 8.99234 56.976C8.99234 57.712 9.15634 58.28 9.48434 58.68C9.82034 59.08 10.2843 59.28 10.8763 59.28ZM18.2757 60.084C17.6837 60.084 17.1717 59.956 16.7397 59.7C16.3077 59.444 15.9717 59.084 15.7317 58.62C15.4997 58.156 15.3837 57.608 15.3837 56.976C15.3837 56.352 15.5037 55.804 15.7437 55.332C15.9837 54.852 16.3237 54.48 16.7637 54.216C17.2037 53.952 17.7237 53.82 18.3237 53.82C18.7317 53.82 19.1237 53.892 19.4997 54.036C19.8837 54.172 20.1997 54.364 20.4477 54.612L20.1237 55.332C19.8277 55.1 19.5357 54.928 19.2477 54.816C18.9677 54.696 18.6757 54.636 18.3717 54.636C17.7637 54.636 17.2797 54.84 16.9197 55.248C16.5677 55.656 16.3917 56.232 16.3917 56.976C16.3917 57.712 16.5677 58.28 16.9197 58.68C17.2717 59.08 17.7557 59.28 18.3717 59.28C18.6677 59.28 18.9597 59.224 19.2477 59.112C19.5357 58.992 19.8277 58.816 20.1237 58.584L20.4477 59.304C20.1917 59.544 19.8677 59.736 19.4757 59.88C19.0917 60.016 18.6917 60.084 18.2757 60.084ZM25.9331 60L22.6451 56.916L25.6811 53.976H26.9171L23.5571 57.192L23.5931 56.58L27.2051 60H25.9331ZM21.8651 60V51.168H22.8371V60H21.8651ZM30.6778 54.732V53.964H34.5538V54.732H30.6778ZM34.5298 59.136V59.964C34.3938 60.004 34.2578 60.032 34.1217 60.048C33.9938 60.072 33.8498 60.084 33.6898 60.084C33.1298 60.084 32.6818 59.924 32.3458 59.604C32.0178 59.284 31.8538 58.804 31.8538 58.164V52.416L32.8258 52.068V58.032C32.8258 58.352 32.8698 58.6 32.9578 58.776C33.0538 58.952 33.1818 59.076 33.3418 59.148C33.5018 59.212 33.6818 59.244 33.8818 59.244C34.0018 59.244 34.1098 59.236 34.2058 59.22C34.3018 59.204 34.4098 59.176 34.5298 59.136ZM38.4011 60.084C37.8251 60.084 37.3211 59.956 36.8891 59.7C36.4651 59.444 36.1331 59.084 35.8931 58.62C35.6611 58.148 35.5451 57.592 35.5451 56.952C35.5451 56.32 35.6611 55.768 35.8931 55.296C36.1331 54.824 36.4651 54.46 36.8891 54.204C37.3211 53.948 37.8251 53.82 38.4011 53.82C38.9771 53.82 39.4771 53.948 39.9011 54.204C40.3331 54.46 40.6651 54.824 40.8971 55.296C41.1371 55.768 41.2571 56.32 41.2571 56.952C41.2571 57.592 41.1371 58.148 40.8971 58.62C40.6651 59.084 40.3331 59.444 39.9011 59.7C39.4771 59.956 38.9771 60.084 38.4011 60.084ZM38.4011 59.28C38.9931 59.28 39.4491 59.084 39.7691 58.692C40.0971 58.292 40.2611 57.712 40.2611 56.952C40.2611 56.208 40.0971 55.636 39.7691 55.236C39.4411 54.836 38.9851 54.636 38.4011 54.636C37.8171 54.636 37.3571 54.836 37.0211 55.236C36.6931 55.636 36.5291 56.208 36.5291 56.952C36.5291 57.712 36.6891 58.292 37.0091 58.692C37.3371 59.084 37.8011 59.28 38.4011 59.28ZM45.4092 54.732V53.964H49.2852V54.732H45.4092ZM49.2612 59.136V59.964C49.1252 60.004 48.9892 60.032 48.8532 60.048C48.7252 60.072 48.5812 60.084 48.4212 60.084C47.8612 60.084 47.4132 59.924 47.0772 59.604C46.7492 59.284 46.5852 58.804 46.5852 58.164V52.416L47.5572 52.068V58.032C47.5572 58.352 47.6012 58.6 47.6892 58.776C47.7852 58.952 47.9132 59.076 48.0732 59.148C48.2332 59.212 48.4132 59.244 48.6132 59.244C48.7332 59.244 48.8412 59.236 48.9372 59.22C49.0332 59.204 49.1412 59.176 49.2612 59.136ZM53.1325 60.084C52.5565 60.084 52.0525 59.956 51.6205 59.7C51.1965 59.444 50.8645 59.084 50.6245 58.62C50.3925 58.148 50.2765 57.592 50.2765 56.952C50.2765 56.32 50.3925 55.768 50.6245 55.296C50.8645 54.824 51.1965 54.46 51.6205 54.204C52.0525 53.948 52.5565 53.82 53.1325 53.82C53.7085 53.82 54.2085 53.948 54.6325 54.204C55.0645 54.46 55.3965 54.824 55.6285 55.296C55.8685 55.768 55.9885 56.32 55.9885 56.952C55.9885 57.592 55.8685 58.148 55.6285 58.62C55.3965 59.084 55.0645 59.444 54.6325 59.7C54.2085 59.956 53.7085 60.084 53.1325 60.084ZM53.1325 59.28C53.7245 59.28 54.1805 59.084 54.5005 58.692C54.8285 58.292 54.9925 57.712 54.9925 56.952C54.9925 56.208 54.8285 55.636 54.5005 55.236C54.1725 54.836 53.7165 54.636 53.1325 54.636C52.5485 54.636 52.0885 54.836 51.7525 55.236C51.4245 55.636 51.2605 56.208 51.2605 56.952C51.2605 57.712 51.4205 58.292 51.7405 58.692C52.0685 59.084 52.5325 59.28 53.1325 59.28ZM57.6837 62.592V55.656C57.6837 55.376 57.6757 55.096 57.6597 54.816C57.6517 54.528 57.6277 54.244 57.5877 53.964H58.5117L58.6197 55.212L58.5237 55.392C58.6597 54.888 58.9197 54.5 59.3037 54.228C59.6877 53.956 60.1517 53.82 60.6957 53.82C61.2237 53.82 61.6877 53.952 62.0877 54.216C62.4957 54.48 62.8117 54.848 63.0357 55.32C63.2677 55.792 63.3837 56.344 63.3837 56.976C63.3837 57.608 63.2677 58.16 63.0357 58.632C62.8117 59.096 62.4997 59.456 62.0997 59.712C61.6997 59.96 61.2317 60.084 60.6957 60.084C60.1517 60.084 59.6877 59.948 59.3037 59.676C58.9197 59.404 58.6597 59.016 58.5237 58.512L58.6557 58.392V62.592H57.6837ZM60.5157 59.28C61.0997 59.28 61.5557 59.08 61.8837 58.68C62.2117 58.28 62.3757 57.712 62.3757 56.976C62.3757 56.24 62.2117 55.668 61.8837 55.26C61.5557 54.844 61.0997 54.636 60.5157 54.636C59.9157 54.636 59.4557 54.836 59.1357 55.236C58.8157 55.636 58.6557 56.208 58.6557 56.952C58.6557 57.696 58.8157 58.272 59.1357 58.68C59.4557 59.08 59.9157 59.28 60.5157 59.28Z" fill="#FFC305"/>
</svg>
