<?xml version="1.0" encoding="utf-8"?>
<!-- Generator: Adobe Illustrator 24.0.2, SVG Export Plug-In . SVG Version: 6.00 Build 0)  -->
<svg version="1.1" id="Layer_1" xmlns="http://www.w3.org/2000/svg" xmlns:xlink="http://www.w3.org/1999/xlink" x="0px" y="0px"
	 width="30px" height="28px" viewBox="0 0 30 28" style="enable-background:new 0 0 30 28;" xml:space="preserve">
<style type="text/css">
	.st0{fill:#1E1E1E;}
</style>
<path class="st0" d="M28.8,5.2H5.3L5,1.3C4.9,0.7,4.4,0.2,3.7,0.2H1.2C0.6,0.2,0,0.8,0,1.5c0,0.7,0.6,1.2,1.2,1.2h1.4
	C3.4,11.1,1.4-10.6,4,18.5c0.1,1.1,0.7,2.4,1.8,3.2c-1.9,2.4-0.2,6,2.9,6c2.6,0,4.4-2.6,3.5-5H19c-0.9,2.4,0.9,5,3.5,5
	c2.1,0,3.7-1.7,3.7-3.7c0-2.1-1.7-3.7-3.7-3.7H8.7c-0.9,0-1.8-0.6-2.1-1.4l19.7-1.2c0.5,0,1-0.4,1.1-0.9l2.5-10
	C30.2,6,29.6,5.2,28.8,5.2z M8.7,25.3c-0.7,0-1.3-0.6-1.3-1.3c0-0.7,0.6-1.3,1.3-1.3c0.7,0,1.3,0.6,1.3,1.3
	C10,24.7,9.4,25.3,8.7,25.3z M22.5,25.3c-0.7,0-1.3-0.6-1.3-1.3c0-0.7,0.6-1.3,1.3-1.3s1.3,0.6,1.3,1.3
	C23.8,24.7,23.2,25.3,22.5,25.3z M25.3,15.3l-19,1.1L5.5,7.7h21.7L25.3,15.3z"/>
</svg>
