<svg width="30" height="28" viewBox="0 0 30 28" fill="none" xmlns="http://www.w3.org/2000/svg">
<path d="M28.7672 5.01751H5.31095L4.96231 1.12459C4.90548 0.488009 4.37286 0 3.73536 0H1.23223C0.551368 0 0 0.552608 0 1.235C0 1.91739 0.551368 2.47 1.23223 2.47H2.60918C3.36153 10.8719 1.4168 -10.8437 4.02598 18.2924C4.12676 19.4329 4.74141 20.6702 5.8002 21.5112C3.89063 23.9553 5.63556 27.5581 8.74161 27.5581C11.3197 27.5581 13.1379 24.9813 12.2537 22.5406H18.9967C18.1137 24.9783 19.9283 27.5581 22.5088 27.5581C24.5684 27.5581 26.2442 25.8786 26.2442 23.8144C26.2442 21.7502 24.5684 20.0706 22.5088 20.0706H8.74982C7.81407 20.0706 6.99845 19.5045 6.6463 18.68L26.3362 17.5202C26.8735 17.4885 27.3288 17.1109 27.4594 16.587L29.9625 6.55142C30.1571 5.7739 29.5694 5.01751 28.7672 5.01751ZM8.74161 25.0887C8.04083 25.0887 7.47071 24.5173 7.47071 23.815C7.47071 23.1126 8.04083 22.5412 8.74161 22.5412C9.4424 22.5412 10.0125 23.1126 10.0125 23.815C10.0125 24.5173 9.4424 25.0887 8.74161 25.0887ZM22.5094 25.0887C21.8086 25.0887 21.2385 24.5173 21.2385 23.815C21.2385 23.1126 21.8086 22.5412 22.5094 22.5412C23.2102 22.5412 23.7803 23.1126 23.7803 23.815C23.7803 24.5173 23.2102 25.0887 22.5094 25.0887ZM25.2885 15.1083L6.31466 16.2259L5.53243 7.48692H27.1899L25.2885 15.1083Z" fill="white"/>
</svg>
