<svg width="20" height="20" viewBox="0 0 20 20" fill="none" xmlns="http://www.w3.org/2000/svg">
<path opacity="0.5" d="M18.0088 6.79503L11.9279 5.15918V12.9341C11.9279 13.2266 11.8112 13.5071 11.6033 13.7139C11.3954 13.9207 11.1134 14.0369 10.8194 14.0369H6.4756L6.10203 15.397C6.08919 15.4436 6.0857 15.4922 6.09175 15.5401C6.0978 15.588 6.11328 15.6343 6.13729 15.6762C6.16131 15.7182 6.1934 15.755 6.23173 15.7846C6.27006 15.8143 6.31388 15.8361 6.36068 15.8488L14.9216 18.1515C14.9531 18.1598 14.9855 18.164 15.0181 18.164C15.0993 18.1641 15.1783 18.1375 15.2428 18.0884C15.3073 18.0393 15.3538 17.9704 15.375 17.8924L18.2678 7.24609C18.2805 7.19945 18.2838 7.15079 18.2776 7.10287C18.2714 7.05495 18.2557 7.00873 18.2316 6.96684C18.2074 6.92494 18.1751 6.88821 18.1366 6.85873C18.0982 6.82925 18.0542 6.8076 18.0073 6.79503H18.0088Z" fill="white"/>
<path d="M10.8195 1.53857H1.95153C1.74746 1.53857 1.58203 1.70316 1.58203 1.90618V12.9344C1.58203 13.1374 1.74746 13.302 1.95153 13.302H10.8195C11.0236 13.302 11.189 13.1374 11.189 12.9344V1.90618C11.189 1.70316 11.0236 1.53857 10.8195 1.53857Z" fill="white"/>
</svg>
