<svg width="40" height="28" viewBox="0 0 40 28" fill="none" xmlns="http://www.w3.org/2000/svg">
<path d="M34.6664 0.0667114H5.33307C2.70407 0.0667114 0.566406 2.20438 0.566406 4.83338V23.1667C0.566406 25.7957 2.70591 27.9334 5.33307 27.9334H34.6664C37.2954 27.9334 39.4331 25.7939 39.4331 23.1667V4.83338C39.4331 2.20438 37.2954 0.0667114 34.6664 0.0667114ZM37.2331 23.1667C37.2331 24.582 36.0799 25.7334 34.6664 25.7334H5.33307C3.91774 25.7334 2.76641 24.582 2.76641 23.1667V4.83338C2.76641 3.41804 3.91774 2.26671 5.33307 2.26671H34.6664C36.0799 2.26671 37.2331 3.41804 37.2331 4.83338V23.1667ZM33.7259 7.34138C34.0797 7.83455 33.9679 8.52205 33.4729 8.87588L21.7451 17.2982C21.2354 17.6667 20.6359 17.85 20.0346 17.85C19.4387 17.85 18.8411 17.6685 18.3314 17.3055L6.52657 8.87771C6.03157 8.52571 5.91791 7.83821 6.26991 7.34321C6.62374 6.84821 7.30941 6.73271 7.80441 7.08655L19.6074 15.5125C19.8622 15.694 20.2051 15.6959 20.4617 15.5107L32.1914 7.08838C32.6846 6.73271 33.3721 6.85005 33.7259 7.34138Z" fill="white"/>
</svg>
