<?xml version="1.0" encoding="utf-8"?>
<!-- Generator: Adobe Illustrator 24.0.2, SVG Export Plug-In . SVG Version: 6.00 Build 0)  -->
<svg version="1.1" id="Layer_1" xmlns="http://www.w3.org/2000/svg" xmlns:xlink="http://www.w3.org/1999/xlink" x="0px" y="0px"
	 viewBox="0 0 1556.3 259.8" style="enable-background:new 0 0 1556.3 259.8;" xml:space="preserve">
<style type="text/css">
	.st0{fill:#FFA400;}
	.st1{fill:#FFFFFF;}
	.st2{fill:#7A7A7A;}
</style>
<polygon class="st0" points="150,86.9 249.8,259.8 300,259.8 150,0 0,259.8 50.2,259.8 "/>
<g>
	<path class="st1" d="M382.1,217.3v22h57c1,0,2.3,1.3,2.3,2.3v13.9c0,1-1.3,2.3-2.3,2.3H362c-1,0-1.9-1-1.9-1.9v-93.3
		c0-1,1-1.9,1.9-1.9h76.1c1,0,2.3,1.3,2.3,2.3v13.9c0,1-1.3,2.3-2.3,2.3h-56V199h51.2c1,0,2.3,1.3,2.3,2.3V215c0,1-1.3,2.3-2.3,2.3
		H382.1z"/>
	<path class="st1" d="M541.6,257.8L492,207.3c-5.2-5.2-11-12.5-11-12.5h-0.5v61c0,1-1,1.9-1.9,1.9h-18.1c-1,0-1.9-1-1.9-1.9v-93.3
		c0-1,1-1.9,1.9-1.9h14.9l49.1,49.9c5.3,5.3,11.3,13.1,11.3,13.1h0.6v-61c0-1,1-1.9,1.9-1.9h18.1c1,0,1.9,1,1.9,1.9v93.3
		c0,1-1,1.9-1.9,1.9L541.6,257.8L541.6,257.8z"/>
	<path class="st1" d="M681.3,255.8c0,1-1,1.9-1.9,1.9h-18.1c-1,0-1.9-1-1.9-1.9v-34.5h-55.9v34.5c0,1-1,1.9-1.9,1.9h-18.1
		c-1,0-1.9-1-1.9-1.9v-93.3c0-1,1-1.9,1.9-1.9h18.1c1,0,1.9,1,1.9,1.9v40.3h55.9v-40.3c0-1,1-1.9,1.9-1.9h18.1c1,0,1.9,1,1.9,1.9
		V255.8z"/>
	<path class="st1" d="M772.6,240.9h-47.3l-7,14.7c-1,1.9-1.5,2.1-3.4,2.1h-19.3c-1,0-1.3-0.6-1.3-1.1s0.3-1.3,0.6-1.9l45.7-94.1
		h16.8l45.7,94.1c0.3,0.6,0.6,1.5,0.6,1.9c0,0.5-0.3,1.1-1.3,1.1h-19.3c-1.9,0-2.4-0.2-3.4-2.1L772.6,240.9z M733.1,223.8h32.1
		l-8.7-18c-3.4-7-6.8-17.3-6.8-17.3h-1c0,0-3.4,10.4-6.8,17.3L733.1,223.8z"/>
	<path class="st1" d="M900,257.8l-49.5-50.5c-5.2-5.2-11-12.5-11-12.5H839v61c0,1-1,1.9-1.9,1.9H819c-1,0-1.9-1-1.9-1.9v-93.3
		c0-1,1-1.9,1.9-1.9h14.9l49.1,49.9c5.3,5.3,11.3,13.1,11.3,13.1h0.6v-61c0-1,1-1.9,1.9-1.9h18.1c1,0,1.9,1,1.9,1.9v93.3
		c0,1-1,1.9-1.9,1.9L900,257.8L900,257.8z"/>
	<path class="st1" d="M1016.2,199.8c-1.6,0-2.4-0.6-2.8-2.6c-1.6-11.2-11.8-19.8-26.4-19.8c-16.7,0-30.3,12.8-30.3,31.7
		c0,18.8,13,31.7,30.3,31.7c14.7,0,24.6-7.3,26.4-18.1c0.3-2.1,1.1-2.8,3.1-2.8h16.2c1.3,0,2.8,0.8,2.8,2.4
		c0,20.9-19.6,36.9-48.4,36.9c-29.3,0-52.3-20.2-52.3-50.2c0-29.8,23-50.2,52.3-50.2c30.8,0,48.4,19.4,48.4,38.7
		c0,1.1-0.8,2.1-2.6,2.1h-16.7V199.8z"/>
	<path class="st1" d="M1075.5,217.3v22h57c1,0,2.3,1.3,2.3,2.3v13.9c0,1-1.3,2.3-2.3,2.3h-77.1c-1,0-1.9-1-1.9-1.9v-93.3
		c0-1,1-1.9,1.9-1.9h76.1c1,0,2.3,1.3,2.3,2.3v13.9c0,1-1.3,2.3-2.3,2.3h-56V199h51.2c1,0,2.3,1.3,2.3,2.3V215c0,1-1.3,2.3-2.3,2.3
		H1075.5z"/>
	<path class="st2" d="M1238,197.4c-1,0-1.5-0.3-1.6-1.6c-1.3-15.4-14.4-28.7-36.4-28.7c-23.2,0-41.3,16-41.3,42.1
		c0,25.9,18.1,42.1,41.3,42.1c23.8,0,35.1-13.6,36.4-26.9c0.2-1.5,0.5-1.8,1.8-1.8h5.8c0.6,0,1.6,0,1.6,1
		c0,15.1-14.1,35.8-45.7,35.8c-28.2,0-50.3-19.3-50.3-50.2s22.2-50.2,50.3-50.2c30.3,0,45.7,20.7,45.7,37.2c0,0.6-0.5,1.1-1.6,1.1
		L1238,197.4L1238,197.4z"/>
	<path class="st2" d="M1279.1,249.7h57.1c0.6,0,1.5,0.8,1.5,1.5v5.2c0,0.6-0.8,1.5-1.5,1.5h-64.9c-0.6,0-1.3-0.6-1.3-1.3v-94.5
		c0-0.6,0.6-1.3,1.3-1.3h6.5c0.6,0,1.3,0.6,1.3,1.3V249.7z"/>
	<path class="st2" d="M1435.1,161.9c0-0.6,0.6-1.3,1.3-1.3h6.5c0.6,0,1.3,0.6,1.3,1.3v50.7c0,31.2-18.5,46.8-46.9,46.8
		c-28.3,0-46.9-15.5-46.9-46.8v-50.7c0-0.6,0.6-1.3,1.3-1.3h6.5c0.6,0,1.3,0.6,1.3,1.3v50.7c0,26.6,14.9,38.7,37.9,38.7
		c23.5,0,37.9-12.1,37.9-38.7v-50.7H1435.1z"/>
	<path class="st2" d="M1474.7,257.8c-0.6,0-1.3-0.6-1.3-1.3V162c0-0.6,0.6-1.3,1.3-1.3h45.5c20.6,0,31.4,10.7,31.4,24.9
		c0,8.9-3.4,16-11,20.4v0.2c10.7,4.5,15.7,13.6,15.7,24.1c0,17.6-13.1,27.5-35.3,27.5H1474.7z M1482.5,168.7v34h41
		c14.2,0,19.4-7.4,19.4-17.2c0-9.9-6.6-16.8-23.2-16.8H1482.5z M1520.7,249.7c18.3,0,26.6-6.8,26.6-19.4c0-12-7.8-19.4-24.4-19.4
		h-40.3v38.9h38.1L1520.7,249.7L1520.7,249.7z"/>
</g>
</svg>
