<svg width="286" height="77" fill="none" xmlns="http://www.w3.org/2000/svg"><g clip-path="url(#clip0)"><path d="M26.987 15.634l17.956 31.108h9.031L26.987 0 0 46.742h9.032l17.955-31.107z" fill="#FFA400"/><path d="M68.745 39.095v3.958H79c.18 0 .414.234.414.414v2.501c0 .18-.234.414-.414.414H65.13c-.18 0-.342-.18-.342-.342V29.254c0-.18.18-.342.342-.342H78.82c.18 0 .414.234.414.414v2.5c0 .18-.234.414-.414.414H68.745v3.563h9.212c.18 0 .414.234.414.414v2.464c0 .18-.234.414-.414.414h-9.212zM97.44 46.382l-8.923-9.086c-.936-.935-1.98-2.249-1.98-2.249h-.09v10.975c0 .18-.179.342-.34.342H82.85c-.18 0-.342-.18-.342-.342V29.236c0-.18.18-.342.342-.342h2.68l8.834 8.978c.954.953 2.033 2.357 2.033 2.357h.108V29.254c0-.18.18-.342.342-.342h3.256c.18 0 .342.18.342.342V46.04c0 .18-.18.342-.342.342h-2.662zM122.576 46.022c0 .18-.18.342-.342.342h-3.256c-.18 0-.342-.18-.342-.342v-6.207h-10.057v6.207c0 .18-.18.342-.342.342h-3.256c-.18 0-.342-.18-.342-.342V29.236c0-.18.18-.342.342-.342h3.256c.18 0 .342.18.342.342v7.25h10.057v-7.25c0-.18.18-.342.342-.342h3.256c.18 0 .342.18.342.342v16.786zM139.001 43.341h-8.51l-1.259 2.645c-.18.342-.27.378-.612.378h-3.472c-.18 0-.234-.108-.234-.198 0-.09.054-.234.108-.342l8.222-16.93h3.023l8.222 16.93c.054.108.108.27.108.342 0 .09-.054.198-.234.198h-3.473c-.341 0-.431-.036-.611-.378l-1.278-2.645zm-7.106-3.076h5.775l-1.565-3.239c-.612-1.259-1.224-3.112-1.224-3.112h-.18s-.611 1.871-1.223 3.112l-1.583 3.239zM161.923 46.382l-8.906-9.086c-.936-.935-1.979-2.249-1.979-2.249h-.09v10.975c0 .18-.18.342-.342.342h-3.256c-.18 0-.342-.18-.342-.342V29.236c0-.18.18-.342.342-.342h2.68l8.834 8.978c.954.953 2.033 2.357 2.033 2.357h.108V29.254c0-.18.18-.342.342-.342h3.256c.18 0 .342.18.342.342V46.04c0 .18-.18.342-.342.342h-2.68zM182.829 35.947c-.288 0-.432-.108-.504-.468-.288-2.015-2.123-3.562-4.75-3.562-3.004 0-5.451 2.303-5.451 5.703 0 3.382 2.339 5.703 5.451 5.703 2.645 0 4.426-1.313 4.75-3.256.054-.378.198-.504.558-.504h2.914c.234 0 .504.144.504.432 0 3.76-3.526 6.639-8.708 6.639-5.271 0-9.409-3.635-9.409-9.032 0-5.361 4.138-9.032 9.409-9.032 5.541 0 8.708 3.49 8.708 6.963 0 .198-.144.378-.468.378h-3.004v.036zM193.497 39.095v3.958h10.255c.18 0 .414.234.414.414v2.501c0 .18-.234.414-.414.414h-13.871c-.18 0-.342-.18-.342-.342V29.254c0-.18.18-.342.342-.342h13.691c.18 0 .414.234.414.414v2.5c0 .18-.234.414-.414.414h-10.075v3.563h9.212c.18 0 .414.234.414.414v2.464c0 .18-.234.414-.414.414h-9.212zM222.734 35.515c-.179 0-.269-.054-.287-.288-.234-2.77-2.591-5.163-6.549-5.163-4.174 0-7.431 2.878-7.431 7.574 0 4.66 3.257 7.574 7.431 7.574 4.282 0 6.315-2.447 6.549-4.84.036-.27.09-.323.323-.323h1.044c.108 0 .288 0 .288.18 0 2.716-2.537 6.44-8.222 6.44-5.074 0-9.05-3.472-9.05-9.031 0-5.56 3.994-9.032 9.05-9.032 5.451 0 8.222 3.724 8.222 6.693 0 .108-.09.198-.288.198h-1.08v.018zM230.127 44.925h10.274c.107 0 .269.144.269.27v.935c0 .108-.144.27-.269.27h-11.677c-.108 0-.234-.108-.234-.234V29.164c0-.108.108-.234.234-.234h1.17c.108 0 .233.108.233.234v15.76zM258.194 29.128c0-.108.108-.234.234-.234h1.169c.108 0 .234.108.234.234v9.122c0 5.613-3.328 8.42-8.438 8.42-5.092 0-8.438-2.789-8.438-8.42v-9.122c0-.108.108-.234.234-.234h1.169c.108 0 .234.108.234.234v9.122c0 4.785 2.681 6.962 6.819 6.962 4.228 0 6.819-2.177 6.819-6.962v-9.122h-.036zM265.32 46.382c-.108 0-.234-.108-.234-.234V29.146c0-.108.108-.234.234-.234h8.186c3.706 0 5.649 1.925 5.649 4.48 0 1.601-.612 2.879-1.979 3.67v.036c1.925.81 2.825 2.447 2.825 4.336 0 3.167-2.357 4.948-6.351 4.948h-8.33zm1.403-16.03v6.116h7.377c2.554 0 3.49-1.33 3.49-3.094 0-1.781-1.187-3.023-4.174-3.023h-6.693zm6.873 14.573c3.292 0 4.786-1.224 4.786-3.49 0-2.16-1.404-3.491-4.39-3.491h-7.251v6.998h6.855v-.017z" fill="#fff"/></g><g clip-path="url(#clip1)" fill="#FFA400"><path d="M196 59h1.878v6.487c.663-.595 1.382-.865 2.21-.865.94 0 1.658.27 2.21.865.442.486.719 1.297.719 2.432v4.865h-1.934V68.08c0-.649-.111-1.081-.332-1.405-.221-.27-.607-.433-1.105-.433-.663 0-1.105.217-1.381.595s-.387 1.08-.387 2.054v3.838H196V59zM212.741 69.216h-5.801c.055.65.276 1.19.663 1.568.387.378.884.595 1.492.595.442 0 .829-.109 1.16-.325.276-.216.663-.594 1.05-1.189l1.602.865c-.332.324-.608.703-.884.973s-.552.54-.884.703c-.331.162-.663.324-.994.432-.387.108-.774.108-1.161.108-1.215 0-2.154-.378-2.928-1.135-.718-.757-1.105-1.784-1.105-3.027s.332-2.27 1.05-3.027c.718-.757 1.657-1.135 2.873-1.135 1.215 0 2.155.378 2.818 1.135.662.757 1.049 1.784 1.049 3.081v.378zm-1.933-1.513c-.277-.973-.884-1.46-1.879-1.46-.221 0-.442.055-.663.109-.221.054-.387.162-.552.27-.166.108-.277.27-.442.486a1.986 1.986 0 00-.277.595h3.813zM220.752 64.838h1.878v7.946h-1.878v-.81c-.773.702-1.602 1.08-2.486 1.08-1.105 0-2.044-.378-2.763-1.189-.718-.81-1.105-1.838-1.105-3.027 0-1.19.387-2.162 1.105-2.973.719-.81 1.658-1.19 2.708-1.19.939 0 1.768.38 2.541 1.136v-.973zm-4.475 3.946c0 .757.221 1.405.608 1.838.442.486.939.702 1.602.702.718 0 1.271-.216 1.657-.702.442-.487.663-1.081.663-1.838 0-.757-.221-1.352-.663-1.838-.442-.486-.994-.703-1.657-.703s-1.16.217-1.602.703c-.387.487-.608 1.081-.608 1.838zM226.884 59v13.73h-1.878V59h1.878zM231.138 66.513v6.217h-1.878v-6.217h-.774v-1.73h.774V61.92h1.878v2.919h1.437v1.73h-1.437v-.055zM234.232 59h1.879v6.487c.663-.595 1.381-.865 2.21-.865.939 0 1.657.27 2.21.865.442.486.718 1.297.718 2.432v4.865h-1.878V68.08c0-.649-.111-1.081-.332-1.405-.221-.27-.608-.433-1.105-.433-.663 0-1.105.217-1.381.595s-.387 1.08-.387 2.054v3.838h-1.878V59h-.056zM248.264 66.19l-1.547.81c-.221-.486-.552-.757-.884-.757a.638.638 0 00-.442.163.608.608 0 00-.165.432c0 .324.386.595 1.105.919.994.432 1.657.81 1.988 1.135.332.379.498.81.498 1.406 0 .756-.277 1.405-.884 1.945-.553.487-1.216.757-2.044.757-1.382 0-2.321-.648-2.873-1.946l1.602-.702c.221.378.387.594.497.702.221.216.497.325.829.325.608 0 .939-.27.939-.865 0-.325-.221-.649-.718-.92-.166-.107-.387-.161-.553-.27-.165-.108-.386-.162-.552-.27-.553-.27-.939-.54-1.16-.757-.277-.324-.442-.756-.442-1.297 0-.703.221-1.243.718-1.73.497-.432 1.105-.648 1.823-.648.995 0 1.768.486 2.265 1.567zM252.41 66.513v6.217h-1.879v-6.217h-.773v-1.73h.773V61.92h1.879v2.919h1.436v1.73h-1.436v-.055zM254.895 68.73c0-1.135.442-2.108 1.27-2.919.829-.81 1.879-1.19 3.039-1.19 1.215 0 2.21.38 3.094 1.19.829.81 1.271 1.784 1.271 2.973 0 1.19-.442 2.162-1.271 2.973-.829.81-1.879 1.19-3.094 1.19-1.216 0-2.21-.433-3.039-1.244-.884-.757-1.27-1.784-1.27-2.973zm1.878.054c0 .81.221 1.405.663 1.892.442.486 1.05.703 1.768.703s1.326-.217 1.768-.703c.442-.487.663-1.081.663-1.838 0-.757-.221-1.405-.663-1.838-.442-.486-1.05-.703-1.768-.703s-1.271.217-1.713.703c-.497.433-.718 1.027-.718 1.784zM265.503 64.838h1.878v.703c.331-.379.663-.595.939-.703.276-.162.608-.216.939-.216.498 0 .995.162 1.547.486l-.884 1.676a1.672 1.672 0 00-1.049-.378c-.995 0-1.547.756-1.547 2.27v4.108h-1.879v-7.946h.056zM279.148 69.216h-5.801c.055.649.276 1.19.663 1.568.387.378.884.594 1.492.594.442 0 .829-.108 1.16-.324.276-.216.663-.594 1.05-1.189l1.602.865a3.908 3.908 0 01-.773 1.027c-.277.27-.553.54-.884.703-.332.162-.663.324-.995.432-.387.108-.773.108-1.16.108-1.216 0-2.155-.378-2.928-1.135-.719-.757-1.105-1.784-1.105-3.027s.331-2.27 1.049-3.027c.719-.757 1.658-1.135 2.873-1.135 1.216 0 2.155.378 2.818 1.135.663.757 1.05 1.784 1.05 3.081l-.111.324zm-1.933-1.513c-.277-.973-.884-1.46-1.879-1.46-.221 0-.442.054-.663.109-.221.053-.387.162-.552.27-.166.108-.277.27-.442.486a1.986 1.986 0 00-.277.595h3.813zM284.121 72.784c1.037 0 1.878-.823 1.878-1.838 0-1.015-.841-1.838-1.878-1.838-1.038 0-1.879.823-1.879 1.838 0 1.015.841 1.838 1.879 1.838z"/></g><path d="M178.606 65.79c.616 0 1.162.15 1.638.448.476.299.845.723 1.106 1.274.261.541.392 1.176.392 1.904s-.131 1.372-.392 1.932c-.261.55-.63.98-1.106 1.288-.476.308-1.022.462-1.638.462-.551 0-1.031-.121-1.442-.364a2.353 2.353 0 01-.938-1.036V73h-1.134V62.696h1.134v4.508c.205-.457.513-.807.924-1.05.42-.243.905-.364 1.456-.364zm-.21 6.37c.681 0 1.213-.238 1.596-.714.383-.485.574-1.162.574-2.03 0-.85-.191-1.507-.574-1.974-.373-.467-.905-.7-1.596-.7-.7 0-1.237.233-1.61.7-.373.467-.56 1.134-.56 2.002 0 .868.187 1.54.56 2.016.373.467.91.7 1.61.7zm11.127-6.202l-3.29 7.686c-.346.803-.78 1.39-1.302 1.764-.523.373-1.167.63-1.932.77l-.238-.882c.662-.15 1.162-.35 1.498-.602.345-.243.63-.62.854-1.134l.28-.63-2.982-6.972h1.19l2.38 5.81 2.408-5.81h1.134z" fill="#fff"/><defs><clipPath id="clip0"><path fill="#fff" d="M0 0h280v46.742H0z"/></clipPath><clipPath id="clip1"><path fill="#fff" transform="translate(196 59)" d="M0 0h90v14H0z"/></clipPath></defs></svg>