<?xml version="1.0" encoding="utf-8"?>
<!-- Generator: Adobe Illustrator 24.0.2, SVG Export Plug-In . SVG Version: 6.00 Build 0)  -->
<svg version="1.1" id="Layer_3" xmlns="http://www.w3.org/2000/svg" xmlns:xlink="http://www.w3.org/1999/xlink" x="0px" y="0px"
	 width="107.7px" height="43.2px" viewBox="0 0 107.7 43.2" style="enable-background:new 0 0 107.7 43.2;" xml:space="preserve">
<style type="text/css">
	.st0{fill:#FFFFFF;}
	.st1{enable-background:new    ;}
	.st2{fill:#191919;}
	.st3{fill:#00B679;}
	.st4{fill:#00532A;}
</style>
<g>
	<g>
		<path class="st0" d="M101.3,43.2H6.4c-3.6,0-6.4-2.9-6.4-6.4V6.4C0,2.9,2.9,0,6.4,0h94.8c3.6,0,6.4,2.9,6.4,6.4v30.4
			C107.7,40.3,104.8,43.2,101.3,43.2z"/>
	</g>
	<g>
		<g class="st1">
			<path d="M26.1,14.7h-1V7.7h3.3c1.2,0,2.3,0.4,2.3,1.9c0,1-0.5,1.4-1,1.7c0.4,0.2,0.8,0.3,0.8,1.3l0.1,1.3c0,0.4,0.1,0.5,0.4,0.7
				v0.2h-1.2c-0.1-0.4-0.2-1.5-0.2-1.8c0-0.6-0.1-1.3-1.3-1.3h-2.3V14.7z M26.1,10.9h2.2c0.7,0,1.4-0.2,1.4-1.2
				c0-1.1-0.8-1.2-1.3-1.2h-2.4V10.9z"/>
			<path d="M36.2,13.1c0,0.2-0.3,1-0.9,1.4c-0.2,0.2-0.6,0.4-1.4,0.4c-1.4,0-2.3-1.1-2.3-2.6c0-1.6,0.8-2.9,2.5-2.9
				c1.5,0,2.2,1.2,2.2,3h-3.8c0,1.1,0.5,1.7,1.5,1.7c0.8,0,1.3-0.6,1.3-1H36.2z M35.4,11.7c0-0.8-0.4-1.5-1.4-1.5
				c-0.8,0-1.4,0.7-1.4,1.5H35.4z"/>
			<path d="M40.3,9.6h0.9l-2,5.1h-0.9l-1.9-5.1h1l1.3,4.2h0L40.3,9.6z"/>
			<path d="M42,8.6v-1h0.9v1H42z M42.8,14.7H42V9.6h0.9V14.7z"/>
			<path d="M48.5,13.1c0,0.2-0.3,1-0.9,1.4c-0.2,0.2-0.6,0.4-1.4,0.4c-1.4,0-2.3-1.1-2.3-2.6c0-1.6,0.8-2.9,2.5-2.9
				c1.5,0,2.2,1.2,2.2,3h-3.8c0,1.1,0.5,1.7,1.5,1.7c0.8,0,1.3-0.6,1.3-1H48.5z M47.7,11.7c0-0.8-0.4-1.5-1.4-1.5
				c-0.8,0-1.4,0.7-1.4,1.5H47.7z"/>
			<path d="M51.3,14.7h-0.9l-1.5-5.1h0.9l1,4h0l1-4h1l1,4h0l1-4h0.9l-1.5,5.1h-0.9l-1-4h0L51.3,14.7z"/>
			<path d="M62.6,14.7V14l0,0c-0.4,0.6-0.8,0.9-1.6,0.9c-0.8,0-1.7-0.4-1.7-1.6V9.6h0.9V13c0,0.8,0.4,1.1,1,1.1c1.1,0,1.4-1,1.4-1.7
				V9.6h0.9v5.1H62.6z"/>
			<path d="M67.7,11.1c0-0.3-0.1-0.9-1.2-0.9c-0.3,0-1,0.1-1,0.7c0,0.4,0.3,0.5,0.9,0.7l0.9,0.2c1.1,0.3,1.4,0.7,1.4,1.4
				c0,1.1-0.9,1.7-2,1.7c-2,0-2.2-1.2-2.2-1.8h0.8c0,0.4,0.1,1.1,1.4,1.1c0.6,0,1.2-0.2,1.2-0.8c0-0.4-0.3-0.6-1-0.7l-1-0.2
				c-0.7-0.2-1.2-0.5-1.2-1.3c0-1.1,0.9-1.6,1.9-1.6c1.8,0,2,1.4,2,1.6H67.7z"/>
			<path d="M74.5,9.4c1.6,0,2.4,1.4,2.4,2.7c0,1.3-0.7,2.7-2.4,2.7c-1.6,0-2.4-1.4-2.4-2.7C72.1,10.8,72.8,9.4,74.5,9.4z M74.5,14.1
				c1.2,0,1.5-1.3,1.5-2c0-0.7-0.3-2-1.5-2c-1.2,0-1.5,1.3-1.5,2C73,12.8,73.2,14.1,74.5,14.1z"/>
			<path d="M82,14.7h-0.9v-3.2c0-0.9-0.3-1.3-1.1-1.3c-0.5,0-1.4,0.3-1.4,1.7v2.8h-0.9V9.6h0.8v0.7h0c0.2-0.3,0.7-0.9,1.6-0.9
				c0.8,0,1.8,0.3,1.8,1.8V14.7z"/>
		</g>
		<g>
			<g>
				<polygon class="st2" points="42.5,21.9 32.4,21.9 32.4,23.5 36.5,23.5 36.5,33.6 38.4,33.6 38.4,23.5 42.5,23.5 				"/>
				<path class="st2" d="M46,24.8C45.9,24.8,45.9,24.8,46,24.8c-0.7,0-1.3,0.2-1.7,0.6c-0.3,0.2-0.5,0.5-0.6,0.7V25h-1.8v8.6h1.7
					v-4.9c0-0.6,0.2-1.1,0.6-1.5s0.9-0.6,1.6-0.6c0.1,0,0.2,0,0.2,0c0.1,0,0.1,0,0.2,0h0.1v-1.7h-0.1C46,24.8,46,24.8,46,24.8z"/>
				<path class="st2" d="M52.8,29.2c0,0.8-0.1,1.4-0.3,1.9c-0.3,0.8-1,1.2-1.9,1.2c-0.7,0-1.1-0.2-1.3-0.7c-0.1-0.3-0.2-0.6-0.2-1
					v-5.7h-1.8v5.8c0,0.7,0.1,1.3,0.4,1.8c0.5,0.8,1.4,1.3,2.6,1.3c0.8,0,1.5-0.2,2.1-0.7c0.2-0.1,0.3-0.3,0.5-0.5v0.9h1.6v-8.6
					h-1.7C52.7,24.9,52.7,29.2,52.8,29.2z"/>
				<path class="st2" d="M62.5,29.3c-0.4-0.2-1.1-0.5-2.2-0.7l-1-0.2c-0.4-0.1-0.7-0.2-1-0.3c-0.3-0.2-0.5-0.4-0.5-0.8
					c0-0.3,0.1-0.5,0.4-0.7s0.7-0.3,1.2-0.3c0.8,0,1.4,0.2,1.7,0.5c0.2,0.2,0.3,0.5,0.3,0.8v0.1H63v-0.1c0-0.6-0.2-1.1-0.6-1.6
					c-0.6-0.8-1.6-1.2-3-1.2c-1.1,0-1.9,0.3-2.5,0.8s-1,1.2-1,2c0,0.7,0.3,1.3,1,1.7c0.4,0.2,1,0.4,1.7,0.6l1.2,0.3
					c0.6,0.1,1,0.3,1.3,0.4c0.3,0.2,0.4,0.4,0.4,0.7c0,0.4-0.2,0.7-0.6,0.9c-0.4,0.2-0.9,0.3-1.4,0.3c-0.9,0-1.5-0.2-1.9-0.6
					c-0.2-0.2-0.3-0.6-0.4-1v-0.1h-1.7v0.1c0,0.9,0.3,1.6,0.9,2.2S58,34,59.3,34s2.2-0.3,2.8-0.8c0.6-0.6,0.9-1.2,0.9-2
					C63.4,30.2,63,29.6,62.5,29.3z"/>
				<path class="st2" d="M66.7,22.7H65V25h-1.2v1.4H65v5.4c0,0.6,0.1,1,0.4,1.4s0.8,0.6,1.5,0.6c0.2,0,0.4,0,0.6,0s0.4-0.1,0.5-0.1
					h0.1v-1.3H68c-0.1,0-0.2,0-0.3,0c-0.1,0-0.2,0-0.2,0c-0.3,0-0.5,0-0.5-0.1c-0.2-0.1-0.2-0.2-0.2-0.5v-5.3h1.4v-1.4h-1.4v-2.4
					C66.8,22.7,66.7,22.7,66.7,22.7z"/>
				<path class="st2" d="M73.4,24.8c-0.7,0-1.3,0.2-1.8,0.5c-0.3,0.2-0.5,0.4-0.8,0.6V25h-1.7v11.9h1.7v-4.1
					c0.2,0.3,0.5,0.5,0.7,0.6c0.5,0.3,1.1,0.4,1.7,0.4c0.9,0,1.6-0.3,2.3-0.8c1-0.8,1.6-2.1,1.6-4c0-1.4-0.4-2.4-1.1-3.2
					C75.3,25.2,74.4,24.8,73.4,24.8z M75.3,29.2c0,1.1-0.2,1.9-0.7,2.4c-0.4,0.5-1,0.8-1.6,0.8c-1,0-1.6-0.4-2-1.2
					c-0.2-0.4-0.3-1-0.3-1.6c0-0.8,0.1-1.4,0.3-1.9c0.4-0.9,1-1.4,2-1.4s1.6,0.4,2,1.3C75.2,28,75.3,28.6,75.3,29.2z"/>
				<rect x="78.5" y="21.9" class="st2" width="1.8" height="1.8"/>
				<rect x="78.5" y="25" class="st2" width="1.8" height="8.5"/>
				<rect x="82" y="21.9" class="st2" width="1.7" height="11.7"/>
				<path class="st2" d="M89.2,24.8c-1.3,0-2.3,0.4-3.1,1.3c-0.8,0.8-1.1,2-1.1,3.4c0,1.3,0.4,2.4,1.1,3.2s1.7,1.2,3,1.2
					c1.5,0,2.6-0.5,3.3-1.4c0.7-0.9,1.1-2,1.1-3.4s-0.4-2.5-1.2-3.2C91.4,25.1,90.4,24.8,89.2,24.8z M89.2,32.4
					c-0.8,0-1.4-0.3-1.8-0.8c-0.4-0.6-0.6-1.3-0.6-2.2s0.2-1.7,0.6-2.3s1-0.9,1.8-0.9c1,0,1.6,0.4,2,1.1c0.2,0.5,0.4,1.1,0.4,1.8
					c0,0.8-0.2,1.6-0.5,2.3C90.7,32.1,90.1,32.4,89.2,32.4z"/>
				<path class="st2" d="M98.1,26.4V25h-1.4v-2.3h-1.8V25h-1.2v1.4h1.2v5.4c0,0.6,0.1,1,0.4,1.4s0.8,0.6,1.5,0.6c0.2,0,0.4,0,0.6,0
					s0.4-0.1,0.5-0.1H98v-1.3h-0.1c-0.1,0-0.2,0-0.3,0c-0.1,0-0.2,0-0.2,0c-0.3,0-0.5,0-0.5-0.1c-0.2-0.1-0.2-0.2-0.2-0.5v-5.3
					L98.1,26.4L98.1,26.4z"/>
			</g>
			<g>
				<polygon class="st3" points="20.4,30 26.7,34.9 24.8,28.9 				"/>
				<polygon class="st3" points="24.2,27.2 31,22.4 22.7,22.4 20.4,14.9 18,22.4 9.7,22.4 16.5,27.2 14,34.9 20.4,30 				"/>
				<polygon class="st4" points="24.8,28.9 24.2,27.2 24.2,27.2 20.4,30 				"/>
			</g>
		</g>
	</g>
</g>
</svg>
