<svg width="32" height="19" fill="none" xmlns="http://www.w3.org/2000/svg"><rect width="32" height="19" rx="2" fill="#fff"/><path fill-rule="evenodd" clip-rule="evenodd" d="M13.277 12.523l.984-6.04h1.573l-.984 6.04h-1.573zM20.555 6.631a3.924 3.924 0 00-1.41-.253c-1.555 0-2.65.82-2.658 1.993-.01.868.78 1.352 1.377 1.641.613.296.819.485.816.75-.004.404-.489.59-.941.59-.63 0-.964-.092-1.482-.317l-.202-.096-.22 1.352c.367.168 1.047.314 1.752.322 1.653 0 2.727-.81 2.74-2.064.005-.688-.414-1.21-1.322-1.64-.55-.28-.887-.466-.883-.75 0-.25.285-.52.901-.52.515-.008.887.11 1.177.232l.142.07.213-1.31zM22.649 10.382l.626-1.689c-.009.016.13-.35.21-.576l.105.52.364 1.745H22.65zm1.94-3.893h-1.215c-.377 0-.66.107-.825.5l-2.335 5.536h1.652s.269-.745.33-.908l2.015.003c.047.211.191.905.191.905h1.46L24.589 6.49zM11.957 6.488l-1.539 4.118-.165-.837c-.287-.965-1.18-2.01-2.179-2.534l1.409 5.283 1.664-.001 2.477-6.029h-1.667z" fill="#26337A"/><path fill-rule="evenodd" clip-rule="evenodd" d="M8.989 6.484H6.453l-.021.125c1.973.5 3.28 1.708 3.821 3.16l-.551-2.776c-.095-.382-.371-.496-.713-.51z" fill="#EC982D"/></svg>