<svg width="60" height="60" fill="none" xmlns="http://www.w3.org/2000/svg"><path fill-rule="evenodd" clip-rule="evenodd" d="M27.401 30.038h2.026c.105-.585-.084-1.087-.732-1.087-.648.003-1.107.336-1.294 1.087zm-11.426 1.088c-.271-.044-.878-.21-1.4.146-.522.355-.666.982-.124 1.19.523.202 1.293-.146 1.4-.69l.124-.646zm37.2-.19c.168-.542.077-1.222-.106-1.462-.501-.667-1.653-.139-2.004 1.17-.23.856.272 1.502.836 1.502.607.002.981-.478 1.274-1.21zm-9.629.19c-.271-.044-.876-.21-1.4.146-.522.355-.669.982-.124 1.19.523.202 1.294-.146 1.4-.69l.124-.646z" fill="#7C7C7C"/><path fill-rule="evenodd" clip-rule="evenodd" d="M41.16 13.807c-3.881 0-7.412 1.359-10.2 3.634 2.126 2.054 3.75 4.625 4.622 7.531h-1.347a16.111 16.111 0 00-4.25-6.693 16.176 16.176 0 00-4.222 6.686h-1.346a17.454 17.454 0 014.574-7.512c-2.779-2.254-6.293-3.646-10.152-3.646-8.942 0-16.193 7.25-16.193 16.193 0 8.943 7.25 16.193 16.193 16.193 3.86 0 7.373-1.392 10.155-3.646a17.471 17.471 0 01-4.575-7.512h1.347a16.2 16.2 0 004.221 6.687 16.16 16.16 0 004.25-6.694h1.347c-.871 2.907-2.496 5.48-4.622 7.531a16.038 16.038 0 0010.2 3.634c8.942 0 16.192-7.25 16.192-16.193-.002-8.942-7.252-16.193-16.195-16.193zM11.67 33.8H9.979l.96-5.095L8.663 33.8H7.118l-.44-5.222-1.003 5.222h-1.63l1.4-7.226h2.611l.314 4.387 1.985-4.387h2.674l-1.358 7.226zm4.054 0l-.209-.333c-.293.209-.523.314-1.358.355-.835.04-1.9-.586-1.711-1.817.458-2.505 3.384-2.047 3.801-2.088.188-.897-.439-.813-1.003-.835-.564-.022-1.63.146-2.025.187l.25-1.296c1.065-.209 1.629-.187 2.13-.209 2.736 0 2.465 1.964 2.297 2.78l-.648 3.259h-1.524v-.003zm6.62-1.692c-.272 1.798-2.213 1.692-2.612 1.692-.564 0-1.169 0-1.922-.208l.23-1.232c.814.272 1.9.147 2.15.147.548 0 .622-.691.21-.898-.334-.168-.69-.417-1.316-.689-.389-.168-.794-.626-.564-1.732.3-1.445 2.256-1.421 2.486-1.421.23 0 .836-.063 1.608.23l-.376 1.212c-.461-.125-1.234-.125-1.608-.084-.605.168-.355.732-.022.876.334.147.857.44 1.169.648.317.185.7.583.566 1.46zm2.82 1.419c-.356.23-.836.293-1.213.293-.377 0-1.608-.23-1.293-1.86l1.128-5.681h1.63l-.334 1.586h.876l-.293 1.296h-.835l-.461 2.422c-.084.46-.04.878.898.732l-.104 1.212zm5.682-2.4h-3.55c-.186 1.358.858 1.315 1.506 1.315s1.588-.084 1.838-.146l-.25 1.23c-.396.21-1.399.294-2.09.272-2.82 0-2.777-2.652-2.714-3.029.062-.377.396-2.985 3.029-2.985 2.858 0 2.419 2.38 2.232 3.343zm2.177-.043l-.501 2.716h-1.63L32 27.867h1.399l.146.585c.252-.293.732-.585 1.546-.585l-.418 1.567c-.396 0-1.169-.125-1.649 1.649zm6.197.878l.48 1.462c-.542.25-1.087.376-1.985.376-1.692 0-3.53-1.502-2.695-4.552.617-2.247 2.549-3.07 3.677-3.03 1.337.051 1.817.502 2.234.96l-1.065 1.066c-.418-.252-.71-.292-1.253-.292-.542 0-1.755.518-1.985 1.984-.269 1.733.922 2.59 2.592 2.026zm4.075 1.838l-.209-.333c-.292.209-.523.314-1.358.355-.835.04-1.9-.586-1.711-1.817.458-2.505 3.384-2.047 3.801-2.088.188-.897-.439-.813-1.003-.835-.564-.022-1.63.146-2.025.187l.252-1.296c1.065-.209 1.63-.187 2.13-.209 2.737 0 2.466 1.964 2.3 2.78l-.648 3.259h-1.529v-.003zm4.308-2.748l-.506 2.744H45.45l1.119-5.99h1.413l.15.59c.254-.296.738-.59 1.562-.59l-.442 1.56c-.403-.003-1.164-.106-1.649 1.686zm5.131 2.748l-.208-.48c-.334.23-.876.461-1.421.48-1.169 0-2.242-1.653-1.711-3.468.794-2.714 2.193-2.548 3.09-2.548.774 0 .96.48 1.275.71l.437-2.297h1.714L54.489 33.8h-1.755z" fill="#7C7C7C"/></svg>