<svg width="32" height="19" fill="none" xmlns="http://www.w3.org/2000/svg"><g clip-path="url(#clip0)"><rect width="32" height="19" rx="2" fill="#fff"/><path fill-rule="evenodd" clip-rule="evenodd" d="M9 19h21a4 4 0 004-4v-5s-8.83 6.217-25 9z" fill="#E6772F"/><mask id="a" maskUnits="userSpaceOnUse" x="7" y="10" width="25" height="9"><path fill-rule="evenodd" clip-rule="evenodd" d="M7.717 19H32v-8.329s-8.576 5.754-24.283 8.33z" fill="#fff"/></mask></g><path fill-rule="evenodd" clip-rule="evenodd" d="M5.852 9.444c-.24.203-.546.292-1.035.292h-.203V7.31h.203c.49 0 .783.083 1.035.296.26.22.417.561.417.913 0 .353-.157.706-.417.925zM4.97 6.689h-1.11v3.668h1.103c.587 0 1.011-.132 1.383-.424.441-.346.703-.868.703-1.409 0-1.083-.854-1.835-2.08-1.835zM7.396 6.689h.753v3.668h-.753V6.69zM9.998 8.095c-.454-.158-.587-.263-.587-.461 0-.23.237-.406.564-.406.226 0 .412.086.61.296l.394-.489a1.742 1.742 0 00-1.137-.407c-.686 0-1.208.451-1.208 1.049 0 .507.242.764.951 1.008.297.098.447.165.524.21a.432.432 0 01.226.378c0 .298-.25.518-.587.518-.36 0-.65-.17-.825-.49l-.487.446c.349.483.766.699 1.341.699.784 0 1.337-.497 1.337-1.205 0-.584-.256-.849-1.116-1.146zM11.351 8.524c0 1.079.895 1.915 2.046 1.915.325 0 .603-.06.945-.214v-.843c-.302.288-.568.402-.912.402-.76 0-1.3-.521-1.3-1.265 0-.703.557-1.26 1.267-1.26.358 0 .632.12.945.413V6.83a2.018 2.018 0 00-.93-.224c-1.144 0-2.06.852-2.06 1.918zM20.464 9.152L19.43 6.689h-.823l1.642 3.76h.405l1.674-3.76h-.817l-1.047 2.463zM22.671 10.357h2.143v-.621h-1.387v-.99h1.334v-.622h-1.334V7.31h1.387V6.69H22.67v3.668zM26.29 8.376h-.22v-1.11h.232c.472 0 .725.188.725.545 0 .367-.253.565-.738.565zm1.515-.605c0-.687-.498-1.082-1.37-1.082h-1.122v3.668h.757V8.882h.098l1.044 1.475h.93l-1.22-1.546c.57-.11.883-.478.883-1.04z" fill="#1A1919"/><path fill-rule="evenodd" clip-rule="evenodd" d="M18.713 8.532c0 1.057-.904 1.913-2.02 1.913-1.115 0-2.019-.856-2.019-1.913 0-1.056.904-1.912 2.02-1.912s2.02.856 2.02 1.912z" fill="#E6772F"/><defs><clipPath id="clip0"><path fill="#fff" d="M0 0h32v19H0z"/></clipPath></defs></svg>