<svg width="32" height="19" viewBox="0 0 32 19" fill="none" xmlns="http://www.w3.org/2000/svg">
<rect width="32" height="19" rx="2" fill="white"/>
<path fill-rule="evenodd" clip-rule="evenodd" d="M17.9612 9.6537C17.9612 13.0668 15.1654 15.8333 11.7165 15.8333C8.26744 15.8333 5.47151 13.0668 5.47151 9.6537C5.47151 6.24068 8.26744 3.47388 11.7165 3.47388C15.1654 3.47388 17.9612 6.24068 17.9612 9.6537Z" fill="#CC0000"/>
<path fill-rule="evenodd" clip-rule="evenodd" d="M20.1005 3.47388C18.4866 3.47388 17.0165 4.07966 15.9081 5.07345C15.6826 5.27599 15.4721 5.49475 15.2777 5.72767H16.5395C16.7118 5.9353 16.8706 6.15357 17.0155 6.38219H14.8016C14.6691 6.59225 14.5487 6.81052 14.4418 7.0367H17.3751C17.4754 7.24853 17.5636 7.4667 17.6396 7.69093H14.1773C14.1052 7.90402 14.0444 8.12239 13.9959 8.34505H17.8208C17.9124 8.76694 17.9612 9.20465 17.9612 9.6537C17.9612 10.3398 17.8482 11.0001 17.6396 11.6169H14.1773C14.2533 11.8409 14.3415 12.0594 14.4416 12.2715H17.3751C17.268 12.4971 17.1482 12.7155 17.0149 12.9259H14.8016C14.9459 13.1538 15.105 13.3724 15.2777 13.5797H16.5391C16.3451 13.8128 16.1344 14.0316 15.9083 14.2341C17.0166 15.2279 18.4866 15.8333 20.1005 15.8333C23.5494 15.8333 26.3452 13.0668 26.3452 9.6537C26.3452 6.24097 23.5494 3.47388 20.1005 3.47388Z" fill="#FF9900"/>
<path fill-rule="evenodd" clip-rule="evenodd" d="M10.2582 10.3304C10.187 10.3224 10.1556 10.3198 10.1068 10.3198C9.72249 10.3198 9.52818 10.4503 9.52818 10.708C9.52818 10.8667 9.62302 10.9676 9.77105 10.9676C10.0473 10.9676 10.2463 10.7075 10.2582 10.3304ZM10.7513 11.4663C10.6609 11.4663 10.1894 11.4663 10.1894 11.4663L10.2023 11.2021C10.031 11.4107 9.80234 11.5103 9.49176 11.5103C9.12445 11.5103 8.8725 11.2265 8.8725 10.8141C8.8725 10.1933 9.31057 9.83124 10.0627 9.83124C10.1398 9.83124 10.2382 9.83827 10.3391 9.85087C10.36 9.76668 10.3655 9.73094 10.3655 9.68553C10.3655 9.51677 10.2475 9.45349 9.93083 9.45349C9.59914 9.45017 9.32557 9.53191 9.21317 9.56843C9.22027 9.52605 9.30722 8.99507 9.30722 8.99507C9.64493 8.89683 9.86777 8.86011 10.1185 8.86011C10.7008 8.86011 11.0092 9.11871 11.0085 9.6076C11.0097 9.73875 10.9877 9.89999 10.9536 10.1127C10.8948 10.4818 10.7685 11.2736 10.7513 11.4663Z" fill="#000066"/>
<path fill-rule="evenodd" clip-rule="evenodd" d="M8.58878 11.4661H7.9107L8.29933 9.05667L7.43197 11.4661H6.97001L6.91287 9.07014L6.5047 11.4661H5.87013L6.40018 8.33154H7.37512L7.43404 10.0861L8.02883 8.33154H9.11311L8.58878 11.4661Z" fill="#000066"/>
<path fill-rule="evenodd" clip-rule="evenodd" d="M20.9382 10.3304C20.867 10.3224 20.836 10.3198 20.7873 10.3198C20.4027 10.3198 20.2086 10.4503 20.2086 10.708C20.2086 10.8667 20.303 10.9676 20.4515 10.9676C20.7275 10.9676 20.9266 10.7075 20.9382 10.3304ZM21.4316 11.4663C21.341 11.4663 20.8699 11.4663 20.8699 11.4663L20.8826 11.2021C20.7113 11.4107 20.4827 11.5103 20.1724 11.5103C19.8046 11.5103 19.5529 11.2265 19.5529 10.8141C19.5529 10.1933 19.9912 9.83124 20.7431 9.83124C20.8201 9.83124 20.9183 9.83827 21.0193 9.85087C21.0403 9.76668 21.0458 9.73094 21.0458 9.68553C21.0458 9.51677 20.9277 9.45349 20.611 9.45349C20.2793 9.45017 20.0059 9.53191 19.8931 9.56843C19.9006 9.52605 19.9877 8.99507 19.9877 8.99507C20.3252 8.89683 20.5483 8.86011 20.7986 8.86011C21.3813 8.86011 21.6893 9.11871 21.6887 9.6076C21.6899 9.73875 21.6681 9.89999 21.6338 10.1127C21.5752 10.4818 21.4486 11.2736 21.4316 11.4663Z" fill="#000066"/>
<path fill-rule="evenodd" clip-rule="evenodd" d="M13.7643 11.4273C13.5786 11.4851 13.434 11.5101 13.2771 11.5101C12.9306 11.5101 12.7414 11.313 12.7414 10.95C12.7366 10.8373 12.7913 10.5409 12.8343 10.2706C12.8736 10.0324 13.1284 8.53101 13.1284 8.53101H13.8021L13.7235 8.91686H14.1306L14.0387 9.52958H13.6302C13.552 10.0143 13.4404 10.6182 13.4391 10.6983C13.4391 10.8297 13.5099 10.8871 13.6713 10.8871C13.7486 10.8871 13.8084 10.8793 13.8541 10.8631L13.7643 11.4273Z" fill="#000066"/>
<path fill-rule="evenodd" clip-rule="evenodd" d="M15.8304 11.4069C15.5989 11.4769 15.3757 11.5111 15.139 11.5103C14.3845 11.5093 13.9912 11.1197 13.9912 10.3731C13.9912 9.50173 14.4915 8.86011 15.1708 8.86011C15.7263 8.86011 16.0813 9.2193 16.0813 9.78241C16.0813 9.96962 16.057 10.152 15.9981 10.4095H14.6561C14.6108 10.7793 14.8498 10.9333 15.2421 10.9333C15.483 10.9333 15.7007 10.8841 15.9426 10.7731L15.8304 11.4069ZM15.4516 9.89577C15.4555 9.84255 15.523 9.44068 15.1378 9.44068C14.9234 9.44068 14.7698 9.6026 14.7075 9.89577H15.4516Z" fill="#000066"/>
<path fill-rule="evenodd" clip-rule="evenodd" d="M11.1579 9.72303C11.1579 10.0452 11.3158 10.2676 11.674 10.4347C11.9485 10.5625 11.9912 10.6003 11.9912 10.716C11.9912 10.8747 11.87 10.9468 11.6019 10.9468C11.3995 10.9468 11.2114 10.9154 10.9944 10.8459C10.9944 10.8459 10.9055 11.4081 10.9012 11.4349C11.0553 11.4679 11.1926 11.4987 11.6067 11.5103C12.322 11.5103 12.6524 11.2408 12.6524 10.6582C12.6524 10.308 12.5143 10.1024 12.1746 9.94775C11.8905 9.81874 11.8576 9.78983 11.8576 9.67088C11.8576 9.53308 11.9704 9.46267 12.1894 9.46267C12.3225 9.46267 12.5042 9.47673 12.6766 9.50085L12.773 8.90962C12.5976 8.88198 12.3313 8.86011 12.1764 8.86011C11.418 8.86011 11.1554 9.25202 11.1579 9.72303Z" fill="#000066"/>
<path fill-rule="evenodd" clip-rule="evenodd" d="M19.1277 8.92728C19.3159 8.92728 19.4918 8.97571 19.7335 9.09652L19.8445 8.41622C19.7448 8.37755 19.3954 8.15088 19.0993 8.15088C18.6458 8.15088 18.2619 8.37393 17.9923 8.74123C17.5988 8.61232 17.4368 8.87288 17.2387 9.13265L17.0625 9.17328C17.0758 9.08783 17.088 9.00296 17.0841 8.91692H16.4612C16.3763 9.70611 16.2256 10.5052 16.1077 11.2946L16.0768 11.4661H16.7551C16.8683 10.7382 16.9302 10.2722 16.9679 9.95661L17.2233 9.81657C17.2617 9.67584 17.3808 9.62857 17.6204 9.63433C17.5891 9.80055 17.5721 9.97565 17.5721 10.1568C17.5721 10.9909 18.0275 11.5102 18.757 11.5102C18.945 11.5102 19.1064 11.4858 19.3564 11.4184L19.4752 10.7041C19.2504 10.8134 19.0664 10.8648 18.8995 10.8648C18.5053 10.8648 18.2668 10.5768 18.2668 10.1011C18.2668 9.41079 18.6213 8.92728 19.1277 8.92728Z" fill="#000066"/>
<path fill-rule="evenodd" clip-rule="evenodd" d="M24.8675 8.33154L24.7168 9.23714C24.5318 8.99583 24.3326 8.82101 24.0697 8.82101C23.7277 8.82101 23.4163 9.07766 23.2124 9.45561C22.9285 9.3973 22.6351 9.29818 22.6351 9.29818L22.6349 9.30062C22.6575 9.08938 22.6671 8.96086 22.6648 8.91692H22.042C21.9574 9.70611 21.8065 10.5052 21.6887 11.2946L21.6575 11.4661H22.336C22.4276 10.8778 22.4975 10.3887 22.5492 10.0014C22.7811 9.794 22.8971 9.61362 23.1309 9.62534C23.0272 9.87359 22.9667 10.1593 22.9667 10.4525C22.9667 11.0896 23.2922 11.5102 23.7852 11.5102C24.0337 11.5102 24.2244 11.4253 24.4103 11.2288L24.3783 11.4659H25.0198L25.5362 8.33154H24.8675ZM24.0197 10.8772C23.789 10.8772 23.6721 10.7079 23.6721 10.3746C23.6721 9.87355 23.8905 9.51836 24.198 9.51836C24.431 9.51836 24.5573 9.69375 24.5573 10.0176C24.5573 10.523 24.3352 10.8772 24.0197 10.8772Z" fill="#000066"/>
<path fill-rule="evenodd" clip-rule="evenodd" d="M8.78378 11.2803H8.1059L8.49443 8.87083L7.62726 11.2803H7.16511L7.10807 8.88479L6.69979 11.2803H6.06523L6.59528 8.146H7.57022L7.59746 10.0863L8.25531 8.146H9.30821L8.78378 11.2803Z" fill="white"/>
<path fill-rule="evenodd" clip-rule="evenodd" d="M10.4533 10.1446C10.3822 10.1364 10.3508 10.1341 10.302 10.1341C9.9177 10.1341 9.72328 10.2644 9.72328 10.5219C9.72328 10.6804 9.81822 10.7819 9.96635 10.7819C10.2425 10.7819 10.4415 10.5217 10.4533 10.1446ZM10.9463 11.28C10.856 11.28 10.3847 11.28 10.3847 11.28L10.3975 11.016C10.2262 11.2245 9.99754 11.3242 9.68697 11.3242C9.31955 11.3242 9.0677 11.04 9.0677 10.6277C9.0677 10.0068 9.50588 9.64525 10.258 9.64525C10.3349 9.64525 10.4333 9.65218 10.5343 9.66508C10.5552 9.5807 10.5608 9.54486 10.5608 9.49925C10.5608 9.33059 10.4427 9.2678 10.126 9.2678C9.79424 9.26389 9.52078 9.34563 9.40827 9.38206C9.41548 9.33987 9.50232 8.80889 9.50232 8.80889C9.84013 8.71084 10.063 8.67383 10.3137 8.67383C10.8959 8.67383 11.2042 8.93272 11.2037 9.42141C11.2048 9.55238 11.183 9.71439 11.1488 9.92651C11.0899 10.2954 10.9636 11.0876 10.9463 11.28Z" fill="white"/>
<path fill-rule="evenodd" clip-rule="evenodd" d="M20.0395 8.23018L19.9285 8.91038C19.6864 8.78997 19.5111 8.74124 19.323 8.74124C18.8168 8.74124 18.4617 9.22534 18.4617 9.91579C18.4617 10.3915 18.7003 10.6789 19.0945 10.6789C19.2615 10.6789 19.4459 10.6278 19.6702 10.5182L19.5511 11.2324C19.3015 11.2997 19.14 11.3243 18.9521 11.3243C18.2221 11.3243 17.7674 10.805 17.7674 9.97107C17.7674 8.85052 18.396 8.06738 19.2944 8.06738C19.5905 8.06738 19.9402 8.19151 20.0395 8.23018Z" fill="white"/>
<path fill-rule="evenodd" clip-rule="evenodd" d="M21.1332 10.1446C21.0625 10.1364 21.031 10.1341 20.9823 10.1341C20.5982 10.1341 20.4037 10.2644 20.4037 10.5219C20.4037 10.6804 20.4985 10.7819 20.6466 10.7819C20.9226 10.7819 21.1218 10.5217 21.1332 10.1446ZM21.6266 11.28C21.5364 11.28 21.065 11.28 21.065 11.28L21.0777 11.016C20.9064 11.2245 20.6777 11.3242 20.3675 11.3242C19.9997 11.3242 19.7481 11.04 19.7481 10.6277C19.7481 10.0068 20.1859 9.64525 20.9382 9.64525C21.0151 9.64525 21.1134 9.65218 21.2142 9.66508C21.2352 9.5807 21.2408 9.54486 21.2408 9.49925C21.2408 9.33059 21.123 9.2678 20.8061 9.2678C20.4746 9.26389 20.2013 9.34563 20.0886 9.38206C20.0957 9.33987 20.1826 8.80889 20.1826 8.80889C20.5204 8.71084 20.7431 8.67383 20.9938 8.67383C21.576 8.67383 21.8846 8.93272 21.8838 9.42141C21.8852 9.55238 21.8632 9.71439 21.829 9.92651C21.7703 10.2954 21.644 11.0876 21.6266 11.28Z" fill="white"/>
<path fill-rule="evenodd" clip-rule="evenodd" d="M13.9593 11.2416C13.7738 11.2994 13.6291 11.3245 13.4723 11.3245C13.1257 11.3245 12.9365 11.1273 12.9365 10.7647C12.9317 10.6516 12.9865 10.3557 13.0296 10.0851C13.0686 9.84669 13.3235 8.34546 13.3235 8.34546H13.9975L13.9186 8.73122H14.2646L14.1724 9.34374H13.8253C13.7471 9.82891 13.6355 10.4325 13.6341 10.5125C13.6341 10.6444 13.7052 10.7014 13.8664 10.7014C13.9437 10.7014 14.0034 10.6939 14.0493 10.6773L13.9593 11.2416Z" fill="white"/>
<path fill-rule="evenodd" clip-rule="evenodd" d="M16.0258 11.2211C15.7942 11.2913 15.5706 11.3244 15.3341 11.3242C14.5795 11.3237 14.1866 10.9336 14.1866 10.1871C14.1866 9.31545 14.6867 8.67383 15.3655 8.67383C15.9216 8.67383 16.2764 9.03302 16.2764 9.59681C16.2764 9.78363 16.2517 9.96596 16.1935 10.2235H14.8513C14.8058 10.5933 15.0451 10.7476 15.437 10.7476C15.6781 10.7476 15.8957 10.6982 16.1379 10.5869L16.0258 11.2211ZM15.647 9.70937C15.6506 9.65605 15.7184 9.25437 15.3333 9.25437C15.1188 9.25437 14.9651 9.41659 14.9026 9.70937H15.647Z" fill="white"/>
<path fill-rule="evenodd" clip-rule="evenodd" d="M11.3529 9.53675C11.3529 9.85952 11.511 10.0814 11.8693 10.2487C12.1438 10.3764 12.1863 10.4142 12.1863 10.53C12.1863 10.6889 12.0652 10.7606 11.7969 10.7606C11.5947 10.7606 11.4065 10.7296 11.1894 10.6603C11.1894 10.6603 11.1006 11.2221 11.0964 11.2485C11.2504 11.2819 11.3878 11.3124 11.8017 11.3242C12.5172 11.3242 12.8476 11.0548 12.8476 10.4722C12.8476 10.1218 12.7093 9.91635 12.3697 9.76205C12.0855 9.63265 12.0528 9.60404 12.0528 9.48489C12.0528 9.3471 12.1655 9.27619 12.3847 9.27619C12.5175 9.27619 12.6994 9.29084 12.8717 9.31487L12.9682 8.72373C12.7927 8.69629 12.5266 8.67383 12.3716 8.67383C11.6131 8.67383 11.3506 9.06583 11.3529 9.53675Z" fill="white"/>
<path fill-rule="evenodd" clip-rule="evenodd" d="M25.2149 11.2803H24.5736L24.6054 11.0431C24.4194 11.2397 24.2288 11.3245 23.9803 11.3245C23.4877 11.3245 23.1617 10.9044 23.1617 10.2667C23.1617 9.4188 23.6671 8.70412 24.2648 8.70412C24.5277 8.70412 24.7268 8.81038 24.9122 9.05179L25.0626 8.146H25.7312L25.2149 11.2803ZM24.2147 10.6913C24.5306 10.6913 24.7523 10.3372 24.7523 9.83233C24.7523 9.50839 24.626 9.33241 24.393 9.33241C24.0855 9.33241 23.8672 9.6877 23.8672 10.189C23.8672 10.5226 23.9842 10.6913 24.2147 10.6913Z" fill="white"/>
<path fill-rule="evenodd" clip-rule="evenodd" d="M22.2373 8.73098C22.1525 9.51997 22.0017 10.319 21.8838 11.1086L21.8529 11.28H22.531C22.7736 9.72115 22.8319 9.41694 23.2124 9.45493C23.2729 9.13588 23.3857 8.85647 23.4697 8.71565C23.1858 8.65705 23.0272 8.81585 22.8194 9.11762C22.8359 8.98704 22.8658 8.86038 22.8602 8.73098H22.2373Z" fill="white"/>
<path fill-rule="evenodd" clip-rule="evenodd" d="M16.6566 8.73098C16.5714 9.51997 16.4205 10.319 16.3027 11.1086L16.2719 11.28H16.9502C17.1929 9.72115 17.251 9.41694 17.631 9.45493C17.6918 9.13588 17.8048 8.85647 17.8886 8.71565C17.605 8.65705 17.4461 8.81585 17.2387 9.11762C17.2551 8.98704 17.2852 8.86038 17.2792 8.73098H16.6566Z" fill="white"/>
</svg>
