<svg width="60" height="60" fill="none" xmlns="http://www.w3.org/2000/svg"><g clip-path="url(#clip0)" fill="#7C7C7C"><path d="M51.083 26.276v-1.612h-5.255v9.505h5.255V32.56h-3.402v-2.566h3.28v-1.61h-3.28v-2.108h3.402zM56.264 30.168c1.395-.284 2.166-1.238 2.166-2.695 0-1.779-1.227-2.806-3.364-2.806h-2.75v9.505h1.853v-3.82h.24l2.565 3.82h2.283l-2.993-4.004zm-1.556-1.127h-.54l.002-2.876h.57c1.155 0 1.782.483 1.782 1.407 0 .957-.63 1.47-1.814 1.47zM59.252 24.477a.727.727 0 100 1.456.728.728 0 000-1.456zm-.007 1.326a.59.59 0 01-.576-.597c0-.33.26-.598.576-.598.316 0 .578.27.578.598a.588.588 0 01-.578.597z"/><path d="M59.346 25.28a.229.229 0 00.182-.233c0-.168-.115-.258-.318-.258h-.269v.835h.2v-.325l.234.325h.243l-.272-.343zm-.173-.121h-.031v-.217h.034c.099 0 .149.035.149.107 0 .076-.053.11-.152.11zM10.534 24.664H8.682v9.505h1.852v-9.505zM15.062 28.31c-1.115-.41-1.442-.683-1.442-1.195 0-.6.583-1.055 1.383-1.055.553 0 1.011.23 1.495.771l.97-1.271a4.168 4.168 0 00-2.794-1.053c-1.682 0-2.961 1.167-2.961 2.722 0 1.309.595 1.98 2.336 2.606.726.256 1.095.426 1.281.54.372.242.557.586.557.985 0 .77-.612 1.342-1.44 1.342-.882 0-1.597-.444-2.022-1.27l-1.198 1.155c.855 1.255 1.88 1.811 3.288 1.811 1.928 0 3.28-1.282 3.28-3.121-.001-1.51-.628-2.196-2.734-2.967zM2.718 24.667H0v9.505h2.708c1.436 0 2.474-.343 3.388-1.1a4.76 4.76 0 001.724-3.646c0-2.806-2.096-4.762-5.102-4.759zm2.165 7.138c-.58.525-1.337.755-2.533.755h-.498v-6.285h.498c1.195 0 1.921.214 2.533.768.643.57 1.029 1.455 1.029 2.366 0 .915-.385 1.825-1.029 2.396zM42.983 24.667l-2.569 6.384-2.533-6.384h-2.026l4.034 9.745h.994l4.107-9.745h-2.007zM31.378 24.394a5.054 5.054 0 00-5.054 5.056 5.055 5.055 0 009.881 1.502c.03-.087.048-.176.073-.263.018-.075.039-.148.053-.22a5.055 5.055 0 00-4.953-6.075zM23.394 26.145c.885 0 1.556.316 2.324 1.07v-2.18c-.812-.414-1.483-.584-2.28-.584-2.808 0-5.06 2.21-5.06 4.973 0 2.793 2.192 4.957 5.014 4.957.8 0 1.484-.155 2.325-.554v-2.183c-.741.743-1.398 1.043-2.237 1.043-1.867 0-3.19-1.354-3.19-3.278 0-1.823 1.366-3.264 3.104-3.264z"/></g><defs><clipPath id="clip0"><path fill="#fff" d="M0 0h60v60H0z"/></clipPath></defs></svg>