<svg width="60" height="60" fill="none" xmlns="http://www.w3.org/2000/svg"><g clip-path="url(#clip0)" fill="#7C7C7C"><path d="M24.024 21.072l-3.05 17.894h4.878l3.051-17.895h-4.88zM16.885 21.092L12.11 33.295l-.51-1.843c-.941-2.22-3.616-5.408-6.755-7.418L9.21 38.957l5.16-.009 7.681-17.86-5.167.004z"/><path d="M9.749 22.372c-.284-1.09-1.105-1.415-2.125-1.453H.063L0 21.275c5.884 1.427 9.778 4.867 11.393 9.002L9.75 22.372zM38.788 24.502a9.004 9.004 0 013.65.685l.44.207.66-3.878c-.965-.363-2.48-.752-4.368-.752-4.82 0-8.216 2.428-8.243 5.906-.03 2.57 2.42 4.005 4.272 4.862 1.9.878 2.537 1.436 2.528 2.22-.015 1.198-1.515 1.747-2.916 1.747-1.953 0-2.99-.27-4.592-.937l-.629-.286-.686 4.005c1.142.5 3.248.931 5.434.953 5.127 0 8.458-2.398 8.493-6.114.021-2.034-1.28-3.585-4.098-4.858-1.706-.83-2.75-1.383-2.74-2.22 0-.744.886-1.54 2.795-1.54zM56.055 21.092h-3.768c-1.17 0-2.041.318-2.556 1.485l-7.24 16.399h5.12s.836-2.205 1.026-2.688l6.245.007c.145.625.594 2.68.594 2.68h4.525l-3.946-17.883zM50.04 32.625c.401-1.027 1.943-5 1.943-5-.026.048.398-1.036.65-1.71l.328 1.544 1.13 5.166h-4.05z"/></g><defs><clipPath id="clip0"><path fill="#fff" d="M0 0h60v60H0z"/></clipPath></defs></svg>