<svg width="25" height="26" viewBox="0 0 25 26" fill="none" xmlns="http://www.w3.org/2000/svg">
<path d="M18.1443 0.609375H7.01465C3.23508 0.609375 0.160156 3.6602 0.160156 7.40996V18.4518C0.160156 22.2017 3.23508 25.2524 7.01465 25.2524H18.1443C21.9241 25.2524 24.9991 22.2016 24.9991 18.4518V7.40996C24.9992 3.6602 21.9241 0.609375 18.1443 0.609375ZM22.7954 18.4518C22.7954 20.9961 20.7089 23.066 18.1444 23.066H7.01465C4.45027 23.0661 2.36398 20.9961 2.36398 18.4518V7.40996C2.36398 4.86581 4.45027 2.79582 7.01465 2.79582H18.1443C20.7088 2.79582 22.7952 4.86581 22.7952 7.40996V18.4518H22.7954Z" fill="#7C7C7C"/>
<path d="M12.58 6.58105C9.05083 6.58105 6.17969 9.42956 6.17969 12.9309C6.17969 16.4322 9.05083 19.2805 12.58 19.2805C16.1093 19.2805 18.9804 16.4322 18.9804 12.9309C18.9804 9.42956 16.1093 6.58105 12.58 6.58105ZM12.58 17.0939C10.2662 17.0939 8.38351 15.2264 8.38351 12.9308C8.38351 10.635 10.266 8.76736 12.58 8.76736C14.8941 8.76736 16.7766 10.635 16.7766 12.9308C16.7766 15.2264 14.8939 17.0939 12.58 17.0939Z" fill="#7C7C7C"/>
<path d="M19.249 4.72754C18.8243 4.72754 18.4072 4.89808 18.1074 5.1969C17.806 5.49425 17.6328 5.90822 17.6328 6.33093C17.6328 6.75234 17.8062 7.16616 18.1074 7.46497C18.4071 7.76233 18.8243 7.93433 19.249 7.93433C19.675 7.93433 20.0908 7.76233 20.392 7.46497C20.6932 7.16616 20.8651 6.75219 20.8651 6.33093C20.8651 5.90822 20.6932 5.49425 20.392 5.1969C20.0923 4.89808 19.675 4.72754 19.249 4.72754Z" fill="#7C7C7C"/>
</svg>
