<svg width="35" height="34" viewBox="0 0 35 34" fill="none" xmlns="http://www.w3.org/2000/svg">
<path d="M25.0192 0.184082H10.0339C4.94489 0.184082 0.804688 4.32449 0.804688 9.41345V24.3988C0.804688 29.488 4.94489 33.6282 10.0339 33.6282H25.0192C30.1086 33.6282 34.2488 29.4878 34.2488 24.3988V9.41345C34.249 4.32449 30.1086 0.184082 25.0192 0.184082ZM31.2817 24.3988C31.2817 27.8518 28.4724 30.6609 25.0194 30.6609H10.0339C6.58108 30.6611 3.77201 27.8518 3.77201 24.3988V9.41345C3.77201 5.96067 6.58108 3.1514 10.0339 3.1514H25.0192C28.4722 3.1514 31.2815 5.96067 31.2815 9.41345V24.3988H31.2817Z" fill="white"/>
<path d="M17.5279 8.28918C12.776 8.28918 8.91016 12.155 8.91016 16.9069C8.91016 21.6586 12.776 25.5242 17.5279 25.5242C22.2797 25.5242 26.1456 21.6586 26.1456 16.9069C26.1456 12.155 22.2797 8.28918 17.5279 8.28918ZM17.5279 22.5567C14.4124 22.5567 11.8775 20.0222 11.8775 16.9067C11.8775 13.791 14.4122 11.2563 17.5279 11.2563C20.6435 11.2563 23.1782 13.791 23.1782 16.9067C23.1782 20.0222 20.6433 22.5567 17.5279 22.5567Z" fill="white"/>
<path d="M26.5061 5.77307C25.9344 5.77307 25.3728 6.00452 24.969 6.41006C24.5633 6.81361 24.3301 7.37543 24.3301 7.94911C24.3301 8.52101 24.5635 9.08262 24.969 9.48816C25.3726 9.89171 25.9344 10.1251 26.5061 10.1251C27.0798 10.1251 27.6396 9.89171 28.0452 9.48816C28.4507 9.08262 28.6822 8.52081 28.6822 7.94911C28.6822 7.37543 28.4507 6.81361 28.0452 6.41006C27.6416 6.00452 27.0798 5.77307 26.5061 5.77307Z" fill="white"/>
</svg>
