<svg version="1.1" id="Layer_1" xmlns="http://www.w3.org/2000/svg" x="0" y="0" width="20" height="20" xml:space="preserve"><style>.st0{fill:#ffa400}</style><path class="st0" d="M14.5 0h-9C2.5 0 0 2.5 0 5.5v8.9C0 17.5 2.5 20 5.5 20h8.9c3.1 0 5.5-2.5 5.5-5.5v-9c.1-3-2.4-5.5-5.4-5.5zm3.7 14.5c0 2.1-1.7 3.8-3.8 3.8H5.5c-2.1 0-3.8-1.7-3.8-3.8v-9c0-2.1 1.7-3.8 3.8-3.8h8.9c2.1 0 3.8 1.7 3.8 3.8v9z"/><path class="st0" d="M10 4.8c-2.8 0-5.1 2.3-5.1 5.1S7.2 15 10 15s5.1-2.3 5.1-5.1-2.2-5.1-5.1-5.1zm0 8.5c-1.8 0-3.4-1.5-3.4-3.4S8.2 6.6 10 6.6s3.4 1.5 3.4 3.4-1.5 3.3-3.4 3.3zM15.3 3.4c-.3 0-.6.2-.9.4-.2.2-.4.6-.4.9s.2.6.4.9c.2.2.6.4.9.4.3 0 .6-.2.9-.4.2-.2.4-.6.4-.9s-.1-.7-.4-.9c-.1-.3-.5-.4-.9-.4z"/></svg>