<svg version="1.1" id="Layer_1" xmlns="http://www.w3.org/2000/svg" x="0" y="0" width="20" height="20" xml:space="preserve"><style>.st0{fill:#ffa400}</style><path class="st0" d="M14.5 0h-9C2.5 0 0 2.5 0 5.5v9c0 3 2.5 5.5 5.5 5.5h9c3 0 5.5-2.5 5.5-5.5v-9c0-3-2.5-5.5-5.5-5.5zm3.7 14.5c0 2.1-1.7 3.7-3.7 3.7h-9c-2.1 0-3.7-1.7-3.7-3.7v-9c0-2.1 1.7-3.7 3.7-3.7h9c2.1 0 3.7 1.7 3.7 3.7v9z"/><path class="st0" d="M10 4.8c-2.8 0-5.2 2.3-5.2 5.2 0 2.8 2.3 5.2 5.2 5.2 2.8 0 5.2-2.3 5.2-5.2 0-2.8-2.4-5.2-5.2-5.2zm0 8.6c-1.9 0-3.4-1.5-3.4-3.4S8.1 6.6 10 6.6s3.4 1.5 3.4 3.4-1.5 3.4-3.4 3.4zM15.4 3.3c-.3 0-.7.1-.9.4-.2.2-.4.6-.4.9 0 .3.1.7.4.9.2.2.6.4.9.4.3 0 .7-.1.9-.4.2-.2.4-.6.4-.9 0-.3-.1-.7-.4-.9-.3-.2-.6-.4-.9-.4z"/></svg>