<svg width="595" height="116" fill="none" xmlns="http://www.w3.org/2000/svg"><g clip-path="url(#clip0)"><path d="M39.076 72.538h5.05v17.57c1.782-1.61 3.712-2.342 5.94-2.342 2.525 0 4.455.732 5.94 2.343 1.188 1.318 1.931 3.514 1.931 6.589v13.178h-5.198V97.137c0-1.757-.297-2.928-.89-3.807-.595-.732-1.635-1.171-2.971-1.171-1.782 0-2.97.585-3.713 1.61-.742 1.025-1.04 2.929-1.04 5.564v10.396h-5.049v-37.19zM84.077 100.212H68.483c.149 1.757.743 3.221 1.782 4.246 1.04 1.025 2.376 1.611 4.01 1.611 1.188 0 2.228-.293 3.119-.879.742-.585 1.782-1.61 2.821-3.221l4.307 2.343c-.89.878-1.633 1.903-2.376 2.636-.743.732-1.485 1.464-2.376 1.903-.891.439-1.782.879-2.673 1.171-1.04.293-2.08.293-3.119.293-3.267 0-5.792-1.025-7.871-3.075-1.93-2.05-2.97-4.832-2.97-8.2 0-3.367.89-6.149 2.821-8.199s4.456-3.075 7.723-3.075c3.267 0 5.792 1.025 7.574 3.075 1.782 2.05 2.822 4.832 2.822 8.346v1.025zm-5.198-4.1c-.743-2.635-2.376-3.953-5.05-3.953-.594 0-1.188.146-1.782.293-.594.146-1.04.44-1.485.732-.445.293-.742.732-1.188 1.318a5.378 5.378 0 00-.742 1.61h10.247zM105.61 88.352h5.049v21.524h-5.049v-2.197c-2.079 1.904-4.307 2.929-6.683 2.929-2.97 0-5.495-1.025-7.426-3.221-1.93-2.197-2.97-4.979-2.97-8.2 0-3.221 1.04-5.857 2.97-8.053 1.931-2.197 4.456-3.221 7.277-3.221 2.525 0 4.753 1.025 6.832 3.074v-2.635zM93.58 99.04c0 2.049.595 3.807 1.634 4.978 1.188 1.318 2.525 1.903 4.307 1.903 1.931 0 3.416-.585 4.455-1.903 1.188-1.318 1.782-2.929 1.782-4.978 0-2.05-.594-3.66-1.782-4.979-1.188-1.317-2.673-1.903-4.455-1.903s-3.119.585-4.307 1.903c-1.04 1.318-1.633 2.929-1.633 4.979zM122.094 72.538v37.191h-5.049v-37.19h5.049zM133.529 92.891v16.839h-5.049V92.891h-2.08v-4.685h2.08v-7.76h5.049v7.906h3.861v4.685h-3.861v-.146zM141.846 72.538h5.049v17.57c1.782-1.61 3.713-2.342 5.94-2.342 2.525 0 4.456.732 5.941 2.343 1.188 1.318 1.931 3.514 1.931 6.589v13.178h-5.05V97.137c0-1.757-.297-2.928-.891-3.807-.594-.732-1.634-1.171-2.97-1.171-1.782 0-2.97.585-3.713 1.61-.742 1.025-1.039 2.929-1.039 5.564v10.396h-5.05v-37.19h-.148zM179.565 92.013l-4.158 2.196c-.594-1.318-1.485-2.05-2.376-2.05-.445 0-.891.146-1.188.44-.297.292-.446.731-.446 1.17 0 .88 1.04 1.611 2.971 2.49 2.673 1.171 4.455 2.196 5.346 3.075.891 1.025 1.337 2.196 1.337 3.807 0 2.049-.743 3.807-2.377 5.271-1.485 1.318-3.267 2.05-5.494 2.05-3.713 0-6.238-1.757-7.723-5.272l4.307-1.903c.594 1.025 1.039 1.611 1.336 1.903.594.586 1.337.879 2.228.879 1.634 0 2.525-.732 2.525-2.343 0-.878-.594-1.757-1.931-2.489-.445-.293-1.039-.439-1.485-.732-.446-.293-1.04-.439-1.485-.732-1.485-.732-2.525-1.464-3.119-2.05-.742-.879-1.188-2.05-1.188-3.514 0-1.904.594-3.368 1.931-4.686 1.336-1.171 2.97-1.757 4.901-1.757 2.673 0 4.752 1.318 6.088 4.247zM190.705 92.891v16.839h-5.05V92.891h-2.079v-4.685h2.079v-7.76h5.05v7.906h3.861v4.685h-3.861v-.146zM197.387 98.894c0-3.075 1.188-5.71 3.415-7.906 2.228-2.197 5.05-3.222 8.169-3.222 3.267 0 5.94 1.025 8.316 3.222 2.228 2.196 3.416 4.832 3.416 8.053 0 3.221-1.188 5.857-3.416 8.053-2.227 2.196-5.049 3.221-8.316 3.221-3.268 0-5.941-1.171-8.169-3.367-2.376-2.05-3.415-4.832-3.415-8.054zm5.049.147c0 2.196.594 3.807 1.782 5.125 1.188 1.317 2.822 1.903 4.753 1.903 1.93 0 3.564-.586 4.752-1.903 1.188-1.318 1.782-2.929 1.782-4.979 0-2.05-.594-3.807-1.782-4.978-1.188-1.318-2.822-1.904-4.752-1.904-1.931 0-3.416.586-4.604 1.904-1.337 1.171-1.931 2.782-1.931 4.832zM225.902 88.352h5.05v1.903c.891-1.024 1.782-1.61 2.524-1.903.743-.44 1.634-.586 2.525-.586 1.337 0 2.673.44 4.158 1.318l-2.376 4.54a4.478 4.478 0 00-2.822-1.026c-2.673 0-4.158 2.05-4.158 6.15v11.128h-5.049V88.352h.148zM262.582 100.212h-15.593c.148 1.757.742 3.221 1.782 4.246 1.039 1.025 2.376 1.611 4.01 1.611 1.188 0 2.227-.293 3.118-.879.743-.585 1.782-1.61 2.822-3.221l4.307 2.343c-.594 1.171-1.337 2.05-2.079 2.782-.743.732-1.485 1.464-2.376 1.903-.892.44-1.783.879-2.674 1.172-1.039.292-2.079.292-3.118.292-3.268 0-5.792-1.024-7.871-3.074-1.931-2.05-2.971-4.832-2.971-8.2 0-3.368.892-6.15 2.822-8.2 1.931-2.05 4.455-3.074 7.723-3.074 3.267 0 5.792 1.025 7.574 3.074 1.782 2.05 2.821 4.832 2.821 8.346l-.297.879zm-5.198-4.1c-.742-2.635-2.376-3.953-5.049-3.953-.594 0-1.188.146-1.782.293-.594.146-1.04.439-1.485.732-.446.293-.743.732-1.188 1.318a5.39 5.39 0 00-.743 1.61h10.247z" fill="#19434C"/><path d="M275.95 109.876c2.788 0 5.049-2.229 5.049-4.979 0-2.749-2.261-4.978-5.049-4.978-2.789 0-5.05 2.229-5.05 4.978 0 2.75 2.261 4.979 5.05 4.979z" fill="#E59265"/></g><path d="M7.896 97.64c1.056 0 1.992.256 2.808.768.816.512 1.448 1.24 1.896 2.184.448.928.672 2.016.672 3.264 0 1.248-.224 2.352-.672 3.312-.448.944-1.08 1.68-1.896 2.208-.816.528-1.752.792-2.808.792-.944 0-1.768-.208-2.472-.624a4.033 4.033 0 01-1.608-1.776V110H1.872V92.336h1.944v7.728c.352-.784.88-1.384 1.584-1.8.72-.416 1.552-.624 2.496-.624zm-.36 10.92c1.168 0 2.08-.408 2.736-1.224.656-.832.984-1.992.984-3.48 0-1.456-.328-2.584-.984-3.384-.64-.8-1.552-1.2-2.736-1.2-1.2 0-2.12.4-2.76 1.2-.64.8-.96 1.944-.96 3.432s.32 2.64.96 3.456c.64.8 1.56 1.2 2.76 1.2zM26.73 97.928l-5.64 13.176c-.592 1.376-1.336 2.384-2.232 3.024-.896.64-2 1.08-3.312 1.32l-.408-1.512c1.136-.256 1.992-.6 2.568-1.032.592-.416 1.08-1.064 1.464-1.944l.48-1.08-5.112-11.952h2.04l4.08 9.96 4.128-9.96h1.944zM10.943 29.526v10.868h28.352c.498 0 1.144.642 1.144 1.136v6.866c0 .494-.646 1.136-1.144 1.136H.945c-.497 0-.945-.494-.945-.939V2.507c0-.494.497-.938.945-.938h37.853c.497 0 1.144.642 1.144 1.136V9.57c0 .494-.647 1.136-1.144 1.136H10.943v9.78H36.41c.498 0 1.144.642 1.144 1.136v6.767c0 .494-.646 1.136-1.144 1.136H10.943zM90.279 49.53L65.608 24.585c-2.587-2.569-5.472-6.174-5.472-6.174h-.249v30.13c0 .495-.497.94-.945.94H49.94c-.497 0-.945-.495-.945-.94V2.457c0-.494.498-.939.945-.939h7.412l24.422 24.649c2.637 2.618 5.621 6.47 5.621 6.47h.298V2.506c0-.495.498-.94.946-.94h9.003c.497 0 .945.495.945.94V48.59c0 .494-.498.939-.945.939h-7.362zM159.769 48.542c0 .494-.497.938-.945.938h-9.003c-.497 0-.945-.493-.945-.938V31.5h-27.805v17.042c0 .494-.497.938-.945.938h-9.003c-.498 0-.945-.493-.945-.938V2.456c0-.494.497-.939.945-.939h9.003c.497 0 .945.494.945.939v19.906h27.805V2.456c0-.494.497-.939.945-.939h9.003c.498 0 .945.494.945.939v46.086zM205.179 41.182h-23.527l-3.482 7.261c-.497.939-.746 1.037-1.691 1.037h-9.6c-.497 0-.647-.296-.647-.543 0-.247.15-.642.299-.938l22.731-46.482h8.357l22.731 46.481c.15.297.299.742.299.94 0 .246-.149.542-.647.542h-9.6c-.945 0-1.194-.098-1.691-1.037l-3.532-7.261zm-19.647-8.447h15.967l-4.328-8.89c-1.691-3.459-3.382-8.546-3.382-8.546h-.498s-1.691 5.137-3.382 8.545l-4.377 8.891zM268.549 49.53l-24.621-24.945c-2.587-2.569-5.472-6.174-5.472-6.174h-.248v30.13c0 .495-.498.94-.945.94h-9.003c-.498 0-.946-.495-.946-.94V2.457c0-.494.498-.939.946-.939h7.411l24.422 24.649c2.637 2.618 5.621 6.47 5.621 6.47h.299V2.506c0-.495.497-.94.945-.94h9.003c.497 0 .945.495.945.94V48.59c0 .494-.498.939-.945.939h-7.412zM326.35 20.88c-.796 0-1.194-.297-1.393-1.285-.795-5.532-5.869-9.78-13.131-9.78-8.307 0-15.071 6.323-15.071 15.658 0 9.287 6.466 15.659 15.071 15.659 7.312 0 12.236-3.606 13.131-8.94.15-1.038.548-1.384 1.542-1.384h8.058c.647 0 1.393.395 1.393 1.186 0 10.323-9.749 18.227-24.074 18.227-14.574 0-26.015-9.978-26.015-24.797 0-14.72 11.441-24.797 26.015-24.797 15.32 0 24.074 9.583 24.074 19.117 0 .543-.398 1.037-1.293 1.037h-8.307v.099zM355.843 29.526v10.868h28.352c.498 0 1.145.642 1.145 1.136v6.866c0 .494-.647 1.136-1.145 1.136h-38.35c-.497 0-.945-.494-.945-.939V2.507c0-.494.498-.938.945-.938h37.853c.497 0 1.144.642 1.144 1.136V9.57c0 .494-.647 1.136-1.144 1.136h-27.855v9.78h25.467c.498 0 1.145.642 1.145 1.136v6.767c0 .494-.647 1.136-1.145 1.136h-25.467zM436.678 19.694c-.498 0-.746-.148-.796-.79-.647-7.607-7.163-14.177-18.106-14.177-11.539 0-20.543 7.903-20.543 20.795 0 12.794 9.004 20.796 20.543 20.796 11.839 0 17.459-6.718 18.106-13.287.1-.741.249-.89.895-.89h2.885c.299 0 .796 0 .796.494 0 7.46-7.013 17.684-22.731 17.684-14.027 0-25.02-9.533-25.02-24.797 0-15.263 11.043-24.796 25.02-24.796 15.071 0 22.731 10.225 22.731 18.375 0 .296-.249.543-.796.543h-2.984v.05zM457.116 45.527h28.402c.299 0 .746.395.746.74v2.57c0 .296-.398.74-.746.74h-32.282c-.298 0-.646-.296-.646-.642V2.256c0-.296.298-.642.646-.642h3.234c.298 0 .646.297.646.642v43.27zM534.712 2.16c0-.297.299-.643.647-.643h3.233c.299 0 .647.297.647.642v25.044c0 15.411-9.202 23.117-23.329 23.117-14.076 0-23.328-7.656-23.328-23.117V2.159c0-.296.298-.642.647-.642h3.233c.298 0 .646.297.646.642v25.044c0 13.14 7.412 19.116 18.852 19.116 11.689 0 18.852-5.977 18.852-19.116V2.159h-.1zM554.41 49.532c-.298 0-.646-.297-.646-.642V2.21c0-.296.298-.641.646-.641h22.632c10.247 0 15.619 5.285 15.619 12.3 0 4.395-1.691 7.902-5.472 10.076v.099c5.323 2.222 7.81 6.717 7.81 11.904 0 8.694-6.516 13.584-17.559 13.584h-23.03zm3.88-44.012v16.795h20.394c7.063 0 9.649-3.655 9.649-8.496 0-4.89-3.282-8.299-11.539-8.299H558.29zm19.001 40.01c9.103 0 13.231-3.358 13.231-9.582 0-5.928-3.88-9.583-12.137-9.583H558.34V45.58h18.951v-.05z" fill="#1E1E1E"/><defs><clipPath id="clip0"><path fill="#fff" transform="translate(39.076 72.538)" d="M0 0h241.923v37.923H0z"/></clipPath></defs></svg>