<svg xmlns="http://www.w3.org/2000/svg" viewBox="0 0 30 29.96"><defs><style>.cls-1{fill:#fff;}</style></defs><title>pinterest</title><g id="Layer_2" data-name="Layer 2"><g id="Layer_1-2" data-name="Layer 1"><g id="_3tJ0hW" data-name="3tJ0hW"><path class="cls-1" d="M14.33,0a15.74,15.74,0,0,1,9.78,3.06A15,15,0,0,1,22.83,27.8a15.27,15.27,0,0,1-12.08,1.59c1.4-2.28,1.91-4.75,2.57-7.31A4.88,4.88,0,0,0,18.5,23.8a7.69,7.69,0,0,0,4.88-3.56c2.29-3.68,2.49-9-.58-12.23-2.89-3.09-7.56-3.6-11.42-2.27a9.51,9.51,0,0,0-6.52,9c0,1.93.73,4.1,2.46,5.15.26.16.75.49,1.07.33s.41-.94.51-1.29c.28-1-.67-1.73-.94-2.71C6.81,12,10.27,8,14.34,7.61a7,7,0,0,1,5.48,1.63,6.38,6.38,0,0,1,1.55,5.19c-.15,2.12-.79,4.6-2.46,6-1.39,1.19-4,1.28-4.61-.8-.32-1.08.29-2.34.59-3.37a9.68,9.68,0,0,0,.7-3.43c-.2-2.33-2.85-2.55-4.09-.86a4.76,4.76,0,0,0-.81,3,5.83,5.83,0,0,0,.27,1.6,2.3,2.3,0,0,1,0,1.51c-.57,2.42-1.26,4.84-1.72,7.28-.2,1.11-.1,2.23-.26,3.33A15,15,0,0,1,5.8,3.14,15.87,15.87,0,0,1,14.33,0Z"/></g></g></g></svg>