<?xml version="1.0" encoding="utf-8"?>
<!-- Generator: Adobe Illustrator 19.2.0, SVG Export Plug-In . SVG Version: 6.00 Build 0)  -->
<svg version="1.1" id="Capa_1" xmlns="http://www.w3.org/2000/svg" xmlns:xlink="http://www.w3.org/1999/xlink" x="0px" y="0px"
	 viewBox="0 0 25.6 32.8" style="enable-background:new 0 0 25.6 32.8;" xml:space="preserve">
<style type="text/css">
	.st0{fill:#C70039;}
</style>
<path class="st0" d="M24.8,17.9c-1.1-1.1-2.9-1.1-4,0l-3,3l-5-5c2.6-1.5,4.3-4.2,4.3-7.4c0-4.7-3.8-8.5-8.5-8.5H2.8
	C1.3,0,0,1.3,0,2.8v21.4c0,1.6,1.3,2.8,2.8,2.8s2.8-1.3,2.8-2.8v-7.2h0.1l7.9,7.9l-3,3c-1.1,1.1-1.1,2.9,0,4c1.1,1.1,2.9,1.1,4,0
	l3-3l3,3c1.1,1.1,2.9,1.1,4,0c1.1-1.1,1.1-2.9,0-4l-3-3l3-3C25.9,20.8,25.9,19,24.8,17.9L24.8,17.9z M5.7,5.7h2.8
	c1.6,0,2.8,1.3,2.8,2.8s-1.3,2.8-2.8,2.8H5.7V5.7z"/>
</svg>
