<svg xmlns="http://www.w3.org/2000/svg" viewBox="0 0 30 35.03"><defs><style>.cls-1{fill:#fff;}</style></defs><title>tiktok</title><g id="Layer_2" data-name="Layer 2"><g id="Layer_1-2" data-name="Layer 1"><g id="HrnZ2h"><path class="cls-1" d="M12.19,12.51v5.87c-.77.19-1.54.35-2.29.57a11.93,11.93,0,0,0-1.54.59c-3,1.39-3.21,4.25-2.32,6.39a5.27,5.27,0,0,0,7.83,2.25,5.55,5.55,0,0,0,2-3.59,16.8,16.8,0,0,0,.23-2.83q0-10.77,0-21.55c0-.06,0-.12,0-.21h5.74c.63,4.77,3.06,7.8,8.14,8.23V13.8c-3,.32-5.52-.85-8.06-2.34v.64c0,3.57.07,7.14,0,10.7a12.45,12.45,0,0,1-4.43,9.63c-6.42,5.32-15.31,2.08-17.14-6A10.75,10.75,0,0,1,3.44,15.73a12.07,12.07,0,0,1,7.05-3.08C11.05,12.58,11.61,12.55,12.19,12.51Z"/></g></g></g></svg>