<?xml version="1.0" encoding="utf-8"?>
<!-- Generator: Adobe Illustrator 24.0.2, SVG Export Plug-In . SVG Version: 6.00 Build 0)  -->
<svg version="1.1" id="Layer_1" xmlns="http://www.w3.org/2000/svg" xmlns:xlink="http://www.w3.org/1999/xlink" x="0px" y="0px"
	 width="23.8px" height="19.4px" viewBox="0 0 23.8 19.4" style="enable-background:new 0 0 23.8 19.4;" xml:space="preserve">
<style type="text/css">
	.st0{fill:#7C7C7C;}
</style>
<path class="st0" d="M23.8,2.4C22.9,2.7,22,3,20.9,3.1c1-0.6,1.8-1.6,2.1-2.7c-1,0.6-2,1-3.1,1.1C19,0.6,17.7,0,16.3,0
	c-2.7,0-4.9,2.2-4.9,4.9c0,0.4,0,0.7,0.1,1.1C7.6,5.9,4,3.9,1.6,1C1.1,1.7,0.9,2.5,0.9,3.4c0,1.7,0.9,3.2,2.2,4.1
	c-0.8,0-1.6-0.2-2.2-0.6c0,0,0,0,0,0.1c0,2.4,1.7,4.3,3.9,4.8C4.4,11.9,4,12,3.5,12c-0.3,0-0.7,0-0.9-0.1c0.7,2,2.4,3.3,4.6,3.4
	c-1.6,1.3-3.8,2-6,2c-0.4,0-0.8,0-1.1-0.1c2.1,1.3,4.7,2.1,7.4,2.1c9,0,13.9-7.4,13.9-13.9c0-0.2,0-0.4,0-0.7
	C22.3,4.2,23.1,3.3,23.8,2.4z"/>
</svg>
