<?xml version="1.0" encoding="utf-8"?>
<!-- Generator: Adobe Illustrator 24.0.2, SVG Export Plug-In . SVG Version: 6.00 Build 0)  -->
<svg version="1.1" id="Layer_1" xmlns="http://www.w3.org/2000/svg" xmlns:xlink="http://www.w3.org/1999/xlink" x="0px" y="0px"
	 width="30px" height="24px" viewBox="0 0 30 24" style="enable-background:new 0 0 30 24;" xml:space="preserve">
<style type="text/css">
	.st0{fill:#FFA400;}
</style>
<path class="st0" d="M29.5,3.1C28.4,3.5,27.3,3.9,26,4c1.2-0.7,2.2-1.9,2.6-3.3c-1.2,0.7-2.4,1.2-3.8,1.4c-1.1-1.2-2.7-1.9-4.4-1.9
	c-3.3,0-6,2.7-6,6c0,0.5,0,0.9,0.1,1.4C9.7,7.4,5.3,5,2.3,1.4c-0.5,0.9-0.8,1.9-0.8,3c0,2.1,1.1,3.9,2.7,5c-1,0-1.9-0.3-2.7-0.7
	c0,0,0,0,0,0.1c0,2.9,2.1,5.3,4.8,5.9c-0.5,0.1-1,0.2-1.6,0.2c-0.4,0-0.8,0-1.1-0.1c0.8,2.4,3,4.1,5.6,4.2c-2,1.6-4.6,2.5-7.4,2.5
	c-0.5,0-1,0-1.4-0.1C3,23,6.1,24,9.5,24c11,0,17-9.1,17-17c0-0.3,0-0.5,0-0.8C27.7,5.3,28.7,4.3,29.5,3.1z"/>
</svg>
