<svg width="41" height="32" viewBox="0 0 41 32" fill="none" xmlns="http://www.w3.org/2000/svg">
<path d="M40.076 3.83183C38.6141 4.47198 37.0564 4.8963 35.4324 5.10233C37.1031 4.10653 38.3783 2.54171 38.9777 0.655587C37.4201 1.58271 35.7002 2.23758 33.8674 2.60303C32.3883 1.03085 30.2803 0.0571289 27.9807 0.0571289C23.5189 0.0571289 19.927 3.6724 19.927 8.10443C19.927 8.74213 19.981 9.3553 20.1137 9.93904C13.4137 9.61284 7.48524 6.40716 3.50261 1.52384C2.80731 2.72812 2.39946 4.10653 2.39946 5.59041C2.39946 8.37668 3.83675 10.8465 5.97916 12.2765C4.68437 12.2519 3.41416 11.8767 2.33804 11.2856C2.33804 11.3101 2.33804 11.342 2.33804 11.3739C2.33804 15.2835 5.13153 18.5308 8.79476 19.2789C8.13877 19.458 7.42381 19.5438 6.68183 19.5438C6.16588 19.5438 5.64502 19.5144 5.1561 19.4065C6.20028 22.5925 9.1633 24.9348 12.6865 25.0109C9.94459 27.1521 6.46317 28.4422 2.69429 28.4422C2.03338 28.4422 1.3995 28.4128 0.765625 28.3318C4.3355 30.63 8.56627 31.9422 13.1287 31.9422C27.9586 31.9422 36.0663 19.6787 36.0663 9.04872C36.0663 8.69307 36.054 8.3497 36.0368 8.00877C37.6363 6.87563 38.9802 5.46042 40.076 3.83183Z" fill="white"/>
</svg>
