<svg width="30" height="24" viewBox="0 0 30 24" fill="none" xmlns="http://www.w3.org/2000/svg">
<path d="M29.4956 3.07397C28.4098 3.54942 27.253 3.86455 26.0468 4.01757C27.2876 3.27799 28.2347 2.1158 28.6799 0.714982C27.523 1.40355 26.2457 1.88992 24.8844 2.16134C23.786 0.993689 22.2203 0.270508 20.5124 0.270508C17.1987 0.270508 14.5309 2.95557 14.5309 6.24723C14.5309 6.72085 14.571 7.17625 14.6696 7.60979C9.69354 7.36752 5.29045 4.98667 2.33256 1.35983C1.81616 2.25425 1.51325 3.27799 1.51325 4.38007C1.51325 6.44943 2.58072 8.28379 4.17189 9.34579C3.21026 9.32758 2.26687 9.04887 1.46763 8.60986C1.46763 8.62808 1.46763 8.65176 1.46763 8.67544C1.46763 11.5791 3.54236 13.9909 6.26304 14.5465C5.77583 14.6795 5.24483 14.7432 4.69376 14.7432C4.31057 14.7432 3.92373 14.7214 3.5606 14.6412C4.33612 17.0075 6.53675 18.7471 9.15341 18.8036C7.11701 20.3939 4.53136 21.3521 1.73222 21.3521C1.24137 21.3521 0.770586 21.3302 0.299805 21.2701C2.95114 22.9769 6.09334 23.9515 9.48187 23.9515C20.496 23.9515 26.5176 14.8434 26.5176 6.94855C26.5176 6.68441 26.5085 6.42939 26.4957 6.17618C27.6836 5.3346 28.6817 4.28353 29.4956 3.07397Z" fill="#FFA400"/>
</svg>
