<?xml version="1.0" encoding="utf-8"?>
<!-- Generator: Adobe Illustrator 24.0.2, SVG Export Plug-In . SVG Version: 6.00 Build 0)  -->
<svg version="1.1" id="Layer_1" xmlns="http://www.w3.org/2000/svg" xmlns:xlink="http://www.w3.org/1999/xlink" x="0px" y="0px"
	 viewBox="0 0 300 200" style="enable-background:new 0 0 300 200;" xml:space="preserve">
<style type="text/css">
	.st0{fill:#E6E6E6;}
	.st1{fill:none;stroke:#E6E6E6;stroke-width:6;stroke-miterlimit:10;}
</style>
<g>
	<g>
		<path class="st0" d="M145.9,106.5h-15.5c-2.3,0-4.2,1.9-4.2,4.2v0.8c0,2.3,1.9,4.2,4.2,4.2h15.5c2.3,0,4.2-1.9,4.2-4.2v-0.8
			C150.1,108.3,148.2,106.5,145.9,106.5z"/>
		<path class="st0" d="M145.7,125.4H74.4c-2.3,0-4.2,1.9-4.2,4.2v6.6c0,2.3,1.9,4.2,4.2,4.2h71.3c2.3,0,4.2-1.9,4.2-4.2v-6.6
			C149.9,127.3,148,125.4,145.7,125.4z"/>
		<path class="st0" d="M115.1,106.2H74.4c-2.3,0-4.2,1.9-4.2,4.2v0.8c0,2.3,1.9,4.2,4.2,4.2h40.7c2.3,0,4.2-1.9,4.2-4.2v-0.8
			C119.3,108.1,117.4,106.2,115.1,106.2z"/>
		<path class="st0" d="M225.6,59.6h-151c-2.3,0-4.2,1.9-4.2,4.2v10.6c0,2.3,1.9,4.2,4.2,4.2h151c2.3,0,4.2-1.9,4.2-4.2V63.8
			C229.8,61.5,227.9,59.6,225.6,59.6z"/>
	</g>
</g>
<path class="st1" d="M234.7,161H65.4C58,161,52,155,52,147.6v-95c0-7.4,6-13.4,13.4-13.4h169.2c7.4,0,13.4,6,13.4,13.4v95
	C248.1,155,242.1,161,234.7,161z"/>
</svg>
