<?xml version="1.0" encoding="utf-8"?>
<!-- Generator: Adobe Illustrator 24.0.2, SVG Export Plug-In . SVG Version: 6.00 Build 0)  -->
<svg version="1.1" id="Layer_1" xmlns="http://www.w3.org/2000/svg" xmlns:xlink="http://www.w3.org/1999/xlink" x="0px" y="0px"
	 viewBox="0 0 300 200" style="enable-background:new 0 0 300 200;" xml:space="preserve">
<style type="text/css">
	.st0{fill:none;stroke:#E6E6E6;stroke-width:6;stroke-miterlimit:10;}
	.st1{fill:#E6E6E6;}
</style>
<g>
	<path class="st0" d="M234.7,161H65.4C58,161,52,155,52,147.6v-95c0-7.4,6-13.4,13.4-13.4h169.2c7.4,0,13.4,6,13.4,13.4v95
		C248.1,155,242.1,161,234.7,161z"/>
	<g>
		<g>
			<circle class="st1" cx="103.3" cy="85.9" r="14.4"/>
			<path class="st1" d="M119.7,128.6c2.9,0,5.2-2.7,4.8-5.6c-2.6-14.5-15.2-18.3-21.1-18.3c-6,0-18.6,3.7-21.1,18.3
				c-0.5,2.9,1.8,5.6,4.8,5.6H119.7z"/>
		</g>
		<g>
			<path class="st1" d="M177,122.3h-26.4c-2.3,0-4.2,1.9-4.2,4.2v0.8c0,2.3,1.9,4.2,4.2,4.2H177c2.3,0,4.2-1.9,4.2-4.2v-0.8
				C181.2,124.2,179.3,122.3,177,122.3z"/>
			<path class="st1" d="M213.8,104.4h-63.3c-2.3,0-4.2,1.9-4.2,4.2v0.8c0,2.3,1.9,4.2,4.2,4.2h63.3c2.3,0,4.2-1.9,4.2-4.2v-0.8
				C218,106.2,216.1,104.4,213.8,104.4z"/>
			<path class="st1" d="M213.8,86.4h-63.3c-2.3,0-4.2,1.9-4.2,4.2v0.8c0,2.3,1.9,4.2,4.2,4.2h63.3c2.3,0,4.2-1.9,4.2-4.2v-0.8
				C218,88.3,216.1,86.4,213.8,86.4z"/>
			<path class="st1" d="M213.8,68.5h-63.3c-2.3,0-4.2,1.9-4.2,4.2v0.8c0,2.3,1.9,4.2,4.2,4.2h63.3c2.3,0,4.2-1.9,4.2-4.2v-0.8
				C218,70.4,216.1,68.5,213.8,68.5z"/>
		</g>
	</g>
</g>
</svg>
