<svg width="48" height="48" viewBox="0 0 48 48" fill="none" xmlns="http://www.w3.org/2000/svg">
<path d="M13.1101 18.4351V28.9801L18.9601 22.9351L13.1101 18.4351Z" fill="white"/>
<path d="M32.3399 17.1001H15.6599L23.9999 23.5051L32.3399 17.1001Z" fill="white"/>
<path d="M21.0601 24.54L14.8801 30.9H33.1201L26.9401 24.54C23.6101 27.09 24.4051 27.105 21.0601 24.54Z" fill="white"/>
<path d="M34.89 28.9801V18.4351L29.04 22.9351L34.89 28.9801Z" fill="white"/>
<path d="M24 1.5C19.5499 1.5 15.1998 2.8196 11.4997 5.29193C7.79957 7.76427 4.91569 11.2783 3.21272 15.3896C1.50975 19.501 1.06417 24.025 1.93234 28.3895C2.80051 32.7541 4.94343 36.7632 8.09011 39.9099C11.2368 43.0566 15.2459 45.1995 19.6105 46.0677C23.9751 46.9358 28.4991 46.4903 32.6104 44.7873C36.7217 43.0843 40.2357 40.2004 42.7081 36.5003C45.1804 32.8002 46.5 28.4501 46.5 24C46.4979 18.0333 44.1266 12.3116 39.9075 8.09248C35.6884 3.87338 29.9667 1.50216 24 1.5ZM37.5 30.465C37.5 31.274 37.1797 32.05 36.6091 32.6235C36.0384 33.1969 35.264 33.521 34.455 33.525H13.545C12.736 33.521 11.9616 33.1969 11.391 32.6235C10.8203 32.05 10.5 31.274 10.5 30.465V17.535C10.5154 16.7308 10.8407 15.9636 11.408 15.3935C11.9753 14.8234 12.7409 14.4943 13.545 14.475H34.455C35.2186 14.4859 35.9509 14.7799 36.51 15.3C36.8204 15.584 37.0686 15.9292 37.239 16.3139C37.4094 16.6985 37.4983 17.1143 37.5 17.535V30.465Z" fill="white"/>
</svg>
