<svg width="48" height="48" viewBox="0 0 48 48" fill="none" xmlns="http://www.w3.org/2000/svg">
<path d="M34.5449 28.5301L26.7299 27.2851C26.2284 27.8754 25.8829 28.5819 25.7249 29.3401C25.6833 29.5377 25.5968 29.7231 25.4719 29.8818C25.347 30.0405 25.1872 30.1682 25.0049 30.2551C24.8232 30.3379 24.6254 30.3795 24.4257 30.3769C24.226 30.3743 24.0294 30.3276 23.8499 30.2401C21.2472 28.8775 19.1225 26.7528 17.7599 24.1501C17.6689 23.9707 17.6204 23.7729 17.6181 23.5718C17.6159 23.3707 17.66 23.1717 17.7471 22.9904C17.8341 22.8091 17.9617 22.6503 18.12 22.5262C18.2783 22.4022 18.463 22.3162 18.6599 22.2751C19.4169 22.1223 20.1236 21.7819 20.7149 21.2851L19.4699 13.4551C19.2082 13.3455 18.9371 13.2601 18.6599 13.2001C18.3532 13.1435 18.0416 13.1184 17.7299 13.1251H17.7149C17.1134 13.1224 16.5173 13.2389 15.9612 13.4681C15.405 13.6972 14.8998 14.0344 14.4749 14.4601C14.042 14.8906 13.6986 15.4025 13.4643 15.9663C13.23 16.53 13.1096 17.1346 13.1099 17.7451C13.1171 22.2926 14.9279 26.6515 18.1449 29.8657C21.3618 33.0798 25.7224 34.8868 30.2699 34.8901C31.494 34.8861 32.6668 34.3981 33.5323 33.5325C34.3979 32.667 34.8859 31.4942 34.8899 30.2701C34.8911 29.9529 34.861 29.6363 34.7999 29.3251C34.7375 29.0533 34.6522 28.7874 34.5449 28.5301Z" fill="white"/>
<path d="M24 1.5C19.5499 1.5 15.1998 2.8196 11.4997 5.29193C7.79957 7.76427 4.91569 11.2783 3.21272 15.3896C1.50975 19.501 1.06417 24.025 1.93234 28.3895C2.80051 32.7541 4.94343 36.7632 8.09011 39.9099C11.2368 43.0566 15.2459 45.1995 19.6105 46.0677C23.9751 46.9358 28.4991 46.4903 32.6104 44.7873C36.7217 43.0843 40.2357 40.2004 42.7081 36.5003C45.1804 32.8002 46.5 28.4501 46.5 24C46.4979 18.0333 44.1266 12.3116 39.9075 8.09248C35.6884 3.87338 29.9667 1.50216 24 1.5ZM35.385 35.37C34.7176 36.0482 33.9212 36.5861 33.0427 36.9519C32.1643 37.3177 31.2216 37.504 30.27 37.5C25.0304 37.4962 20.0063 35.4141 16.3 31.7106C12.5937 28.0071 10.5078 22.9846 10.5 17.745C10.5004 15.8288 11.2598 13.9908 12.6119 12.6331C13.964 11.2753 15.7989 10.5084 17.715 10.5C18.2035 10.4921 18.6913 10.5374 19.17 10.635C19.9256 10.79 20.6503 11.0688 21.315 11.46C21.4812 11.5564 21.6239 11.6884 21.7329 11.8467C21.8418 12.0049 21.9143 12.1854 21.945 12.375L23.4 21.54C23.4283 21.7297 23.4147 21.9234 23.3603 22.1073C23.3059 22.2913 23.2119 22.4612 23.085 22.605C22.4644 23.2972 21.7156 23.8626 20.88 24.27C21.2733 24.8189 21.7096 25.3355 22.185 25.815C22.6586 26.3026 23.1814 26.7399 23.745 27.12C24.1382 26.2841 24.7 25.5385 25.395 24.93C25.5383 24.7969 25.71 24.698 25.8971 24.6408C26.0842 24.5837 26.2818 24.5697 26.475 24.6L35.625 26.055C35.8179 26.0876 36.0012 26.1622 36.162 26.2737C36.3227 26.3852 36.4569 26.5307 36.555 26.7C36.934 27.3514 37.2026 28.061 37.35 28.8C37.4511 29.2834 37.5013 29.7761 37.5 30.27C37.5019 31.2177 37.3159 32.1563 36.9529 33.0317C36.5899 33.907 36.057 34.7018 35.385 35.37Z" fill="white"/>
</svg>
