<?xml version="1.0" encoding="utf-8"?>
<!-- Generator: Adobe Illustrator 24.0.2, SVG Export Plug-In . SVG Version: 6.00 Build 0)  -->
<svg version="1.1" id="Layer_1" xmlns="http://www.w3.org/2000/svg" xmlns:xlink="http://www.w3.org/1999/xlink" x="0px" y="0px"
	 width="33px" height="22px" viewBox="0 0 33 22" style="enable-background:new 0 0 33 22;" xml:space="preserve">
<style type="text/css">
	.st0{fill:#FFA400;}
</style>
<path class="st0" d="M30.8,2.3c-0.9-1.5-1.8-1.8-3.7-1.9c-1.9-0.1-6.7-0.2-10.8-0.2S7.4,0.3,5.5,0.4C3.7,0.5,2.7,0.8,1.9,2.3
	C1,3.9,0.5,6.5,0.5,11.1l0,0l0,0l0,0c0,4.6,0.5,7.2,1.3,8.8c0.9,1.5,1.8,1.8,3.7,1.9S12.2,22,16.3,22s8.9-0.1,10.8-0.2
	s2.8-0.4,3.7-1.9c0.9-1.5,1.3-4.2,1.3-8.8l0,0l0,0C32.1,6.5,31.7,3.9,30.8,2.3z M12.4,17V5.2l9.9,5.9L12.4,17z"/>
</svg>
