<svg width="33" height="22" viewBox="0 0 33 22" fill="none" xmlns="http://www.w3.org/2000/svg">
<path d="M30.7911 2.33851C29.9336 0.813177 29.003 0.532611 27.1081 0.425916C25.2153 0.297488 20.4555 0.244141 16.332 0.244141C12.2006 0.244141 7.43883 0.297488 5.54797 0.423941C3.65711 0.532611 2.72453 0.811201 1.85912 2.33851C0.975923 3.86187 0.521484 6.48576 0.521484 11.1052C0.521484 11.1092 0.521484 11.1112 0.521484 11.1112C0.521484 11.1151 0.521484 11.1171 0.521484 11.1171V11.121C0.521484 15.7207 0.975923 18.3644 1.85912 19.872C2.72453 21.3973 3.65514 21.6739 5.546 21.8023C7.43884 21.913 12.2006 21.9782 16.332 21.9782C20.4555 21.9782 25.2153 21.913 27.1101 21.8043C29.0049 21.6759 29.9355 21.3993 30.793 19.8739C31.6841 18.3664 32.1346 15.7227 32.1346 11.123C32.1346 11.123 32.1346 11.1171 32.1346 11.1131C32.1346 11.1131 32.1346 11.1092 32.1346 11.1072C32.1346 6.48576 31.6841 3.86187 30.7911 2.33851ZM12.3764 17.0386V5.18369L22.2555 11.1112L12.3764 17.0386Z" fill="#FFA400"/>
</svg>
