<svg width="67" height="51" viewBox="0 0 67 51" fill="none" xmlns="http://www.w3.org/2000/svg">
<path d="M65.3538 26.4028C65.5717 25.8013 65.6914 25.1547 65.6914 24.4811C65.6914 22.4915 64.6564 20.7342 63.086 19.6978V5.76497C63.086 2.58617 60.4443 0 57.1973 0H9.80268C6.55566 0 3.914 2.58617 3.914 5.76497V19.6978C2.34356 20.7342 1.30859 22.4915 1.30859 24.4811C1.30859 25.1547 1.42833 25.8013 1.64621 26.4028H0V51H3.92578V45.119H63.0742V51H67V26.4028H65.3538ZM9.80268 3.84331H57.1973C58.2797 3.84331 59.1602 4.70537 59.1602 5.76497V18.7162H55.2401V16.7945C55.2401 13.6157 52.5984 11.0295 49.3514 11.0295H37.4258C35.9187 11.0295 34.5426 11.5873 33.5 12.5022C32.4573 11.5872 31.0813 11.0295 29.5742 11.0295H17.6486C14.4016 11.0295 11.7599 13.6157 11.7599 16.7945V18.7162H7.83979V5.76497C7.83979 4.70537 8.72034 3.84331 9.80268 3.84331ZM31.5371 18.7162H15.6857V16.7945C15.6857 15.7349 16.5663 14.8729 17.6486 14.8729H29.5742C30.6566 14.8729 31.5371 15.7349 31.5371 16.7945V18.7162ZM35.4629 16.7945C35.4629 15.7349 36.3434 14.8729 37.4258 14.8729H49.3514C50.4337 14.8729 51.3143 15.7349 51.3143 16.7945V18.7162H35.4629V16.7945ZM5.23438 24.4811C5.23438 23.4215 6.11493 22.5595 7.19727 22.5595H59.8027C60.8851 22.5595 61.7656 23.4215 61.7656 24.4811C61.7656 25.5407 60.8851 26.4028 59.8027 26.4028H7.19727C6.11493 26.4028 5.23438 25.5407 5.23438 24.4811ZM3.92578 30.2461H63.0742V41.2757H3.92578V30.2461Z" fill="white"/>
</svg>
