<svg width="61" height="62" viewBox="0 0 61 62" fill="none" xmlns="http://www.w3.org/2000/svg">
<path d="M55.5207 15.1797H43.0869V13.3029C43.0869 6.51152 37.5617 0.986328 30.7703 0.986328C23.979 0.986328 18.4538 6.51152 18.4538 13.3029V15.1797H6.01997C3.1094 15.1797 0.741455 17.5476 0.741455 20.4582V55.7656C0.741455 58.6761 3.1094 61.0441 6.01997 61.0441H55.5207C58.4313 61.0441 60.7992 58.6761 60.7992 55.7656V20.4582C60.7992 17.5476 58.4313 15.1797 55.5207 15.1797ZM21.9728 13.3029C21.9728 8.45191 25.9194 4.50534 30.7703 4.50534C35.6213 4.50534 39.5679 8.45191 39.5679 13.3029V15.1797H36.0488V13.3029C36.0488 10.3923 33.6809 8.02435 30.7703 8.02435C27.8598 8.02435 25.4918 10.3923 25.4918 13.3029V15.1797H21.9728V13.3029ZM32.5298 13.3029V15.1797H29.0108V13.3029C29.0108 12.3327 29.8001 11.5434 30.7703 11.5434C31.7405 11.5434 32.5298 12.3327 32.5298 13.3029ZM14.9348 57.5251H6.01997C5.04978 57.5251 4.26046 56.7358 4.26046 55.7656V41.5674C5.73188 42.6745 7.56 43.3317 9.53898 43.3317H11.7184C12.2494 44.829 13.4376 46.0171 14.9348 46.5481V57.5251ZM16.6943 43.3317C15.7241 43.3317 14.9348 42.5424 14.9348 41.5722V36.2937H18.4538V41.5722C18.4538 42.5424 17.6645 43.3317 16.6943 43.3317ZM43.0869 57.5251H18.4538V46.5481C19.951 46.0171 21.1392 44.829 21.6702 43.3317H39.8705C40.4015 44.829 41.5896 46.0171 43.0869 46.5481V57.5251ZM44.8464 43.3317C43.8762 43.3317 43.0869 42.5424 43.0869 41.5722V36.2937H46.6059V41.5722C46.6059 42.5424 45.8166 43.3317 44.8464 43.3317ZM57.2802 55.7656C57.2802 56.7358 56.4909 57.5251 55.5207 57.5251H46.6059V46.5481C48.1031 46.0171 49.2912 44.829 49.8223 43.3317H52.0017C53.9807 43.3317 55.8088 42.6745 57.2802 41.5674V55.7656ZM57.2802 34.5342C57.2802 37.4448 54.9123 39.8127 52.0017 39.8127H50.1249V36.2937H51.8844C52.8561 36.2937 53.6439 35.5059 53.6439 34.5342C53.6439 33.5625 52.8561 32.7747 51.8844 32.7747C50.3956 32.7747 39.3071 32.7747 37.8083 32.7747C36.8366 32.7747 36.0488 33.5625 36.0488 34.5342C36.0488 35.5059 36.8366 36.2937 37.8083 36.2937H39.5679V39.8127H21.9728V36.2937H23.7323C24.704 36.2937 25.4918 35.5059 25.4918 34.5342C25.4918 33.5625 24.704 32.7747 23.7323 32.7747C22.2435 32.7747 11.155 32.7747 9.65628 32.7747C8.68456 32.7747 7.89677 33.5625 7.89677 34.5342C7.89677 35.5059 8.68456 36.2937 9.65628 36.2937H11.4158V39.8127H9.53898C6.62841 39.8127 4.26046 37.4448 4.26046 34.5342V20.4582C4.26046 19.488 5.04978 18.6987 6.01997 18.6987C22.3117 18.6987 40.5477 18.6987 55.5207 18.6987C56.4909 18.6987 57.2802 19.488 57.2802 20.4582V34.5342Z" fill="white"/>
</svg>
