<svg width="23" height="32" viewBox="0 0 23 32" fill="none" xmlns="http://www.w3.org/2000/svg">
<path d="M22.7371 15.8589C22.7371 14.9671 22.4552 14.1201 21.9217 13.4096C21.5257 12.8821 21.0011 12.4561 20.409 12.1745C20.2009 10.1192 18.4673 8.51014 16.3664 8.51014C15.6663 8.51014 14.9808 8.69269 14.3769 9.03317C13.6517 8.38703 12.7189 8.02734 11.7266 8.02734C10.5247 8.02734 9.39508 8.57285 8.64137 9.48604C8.23427 9.36164 7.8112 9.29893 7.37702 9.29893C5.28229 9.29893 3.4986 10.8122 3.10508 12.8302C2.46569 13.1179 1.89837 13.5682 1.47392 14.1318C0.923 14.8632 0.631836 15.7357 0.631836 16.6548C0.631836 17.6165 0.964778 18.556 1.56949 19.2999C2.06324 19.9075 2.71994 20.3644 3.45223 20.6166C4.02222 22.1018 5.4493 23.1273 7.28679 23.3362C8.19901 23.4399 9.08372 23.2092 9.64923 23.006C10.469 23.8925 11.6233 24.4063 12.8474 24.4063C13.9718 24.4063 14.7967 24.2075 15.3403 24.0091L17.0029 26.9608C17.1497 27.2214 17.4207 27.3694 17.701 27.3694C17.8203 27.3694 17.9413 27.3426 18.0552 27.2862L21.0706 25.7917C21.4661 25.5957 21.6295 25.1157 21.4364 24.7176L20.2122 22.1948C20.8062 21.4237 21.1278 20.483 21.1278 19.4919C21.1278 19.3678 21.1225 19.2434 21.1121 19.1193C22.1263 18.3563 22.7371 17.1523 22.7371 15.8589ZM20.6161 17.3724C19.914 16.0632 18.6572 15.3273 18.5897 15.2884C18.2057 15.0676 17.716 15.2012 17.4961 15.5868C17.2761 15.9725 17.4092 16.4641 17.7933 16.685C17.8078 16.6933 19.2476 17.5541 19.4536 18.8522C19.4546 18.8585 19.4562 18.8644 19.4574 18.8706C19.4588 18.8787 19.4598 18.8868 19.4616 18.8949C19.5038 19.0916 19.5251 19.2925 19.5251 19.4919C19.5251 20.2494 19.23 20.9607 18.6939 21.4946C18.4504 21.7372 18.3877 22.1086 18.5379 22.4183L19.6464 24.7028L18.0251 25.5063L16.3697 22.5673C16.2559 22.3654 16.0716 22.2149 15.8454 22.1678C15.788 22.1558 15.7307 22.1499 15.6741 22.1499C15.5099 22.1499 15.3518 22.2003 15.2155 22.3019C15.1455 22.3453 14.3783 22.7969 12.8474 22.7969C12.1572 22.7969 11.5021 22.5383 11.0003 22.0849C12.2887 20.9173 13.454 20.3686 14.6288 20.3686C15.0714 20.3686 15.4302 20.0084 15.4302 19.564C15.4302 19.1196 15.0714 18.7593 14.6288 18.7593C12.8965 18.7593 11.1949 19.6113 9.43045 21.3619C9.14762 21.4888 8.29176 21.8308 7.4672 21.737C6.12603 21.5845 5.12752 20.8284 4.86147 19.7639C4.86013 19.7585 4.85837 19.7535 4.85698 19.7481C4.85612 19.7451 4.85575 19.742 4.85484 19.739C4.71733 19.255 5.05027 18.1471 5.31825 17.5516C5.50144 17.147 5.32327 16.67 4.92034 16.4861C4.51731 16.3021 4.04231 16.4811 3.85922 16.8857C3.76257 17.0991 3.42835 17.879 3.28661 18.7326C2.64445 18.2569 2.23468 17.4909 2.23468 16.6547C2.23468 15.5245 2.98722 14.5089 4.06464 14.185C4.3838 14.089 4.61053 13.8048 4.63414 13.4712C4.73592 12.0339 5.94075 10.9081 7.37713 10.9081C7.80084 10.9081 8.2074 11.0024 8.58549 11.1885C8.96614 11.3758 9.42634 11.233 9.63539 10.8625C10.0619 10.1063 10.8632 9.63651 11.7267 9.63651C12.2628 9.63651 12.7695 9.81257 13.183 10.131C11.6856 11.7791 9.96625 12.315 9.94985 12.3199C9.52517 12.4451 9.28193 12.8922 9.40657 13.3186C9.50909 13.6694 9.82857 13.8969 10.1751 13.8969C10.2498 13.8969 10.3258 13.8863 10.4011 13.8641C10.454 13.8486 11.1108 13.6492 11.9937 13.1355C12.2025 13.7903 12.6133 14.2668 12.9238 14.5041L12.9246 14.503C13.0631 14.6178 13.2406 14.6867 13.4343 14.6867C13.8768 14.6867 14.2356 14.3264 14.2356 13.882C14.2356 13.6098 14.1006 13.3696 13.8945 13.2239L13.8947 13.2236L13.904 13.2309C13.8478 13.185 13.3784 12.7781 13.4764 12.0818C13.936 11.6879 14.4023 11.2157 14.8403 10.6532C15.2736 10.3086 15.8124 10.1192 16.3666 10.1192C17.7235 10.1192 18.8274 11.2277 18.8274 12.5901C18.8274 12.6256 18.8261 12.6608 18.8246 12.696C18.8089 13.063 19.0429 13.394 19.393 13.5005C20.4184 13.8122 21.1346 14.782 21.1346 15.8587C21.1344 16.4165 20.9462 16.9466 20.6161 17.3724Z" fill="#1E1E1E"/>
<path d="M12.0008 4.89367C12.5588 4.89367 13.0113 4.47603 13.0113 3.96088V1.78436C13.0113 1.26921 12.5588 0.851562 12.0008 0.851562C11.4427 0.851562 10.9902 1.26921 10.9902 1.78436V3.96088C10.9902 4.47603 11.4427 4.89367 12.0008 4.89367Z" fill="#1E1E1E"/>
<path d="M17.5101 5.7928C17.9465 6.01599 18.5024 5.87991 18.7515 5.48817L19.9627 3.58388C20.2117 3.19235 20.0597 2.69397 19.623 2.47063C19.1863 2.24733 18.6307 2.38363 18.3816 2.77526L17.1705 4.67955C16.9215 5.07102 17.0735 5.56946 17.5101 5.7928Z" fill="#1E1E1E"/>
<path d="M5.24685 5.4882C5.49584 5.87973 6.0516 6.01608 6.48826 5.79279C6.92485 5.56949 7.0769 5.07105 6.8279 4.67952L5.61676 2.7752C5.36777 2.38367 4.81189 2.24732 4.37535 2.47062C3.93875 2.69391 3.78671 3.19236 4.03571 3.58388L5.24685 5.4882Z" fill="#1E1E1E"/>
<path d="M11.9992 27.12C11.4412 27.12 10.9887 27.5376 10.9887 28.0528L10.9887 30.2293C10.9887 30.7445 11.4412 31.1621 11.9992 31.1621C12.5573 31.1621 13.0098 30.7445 13.0098 30.2293L13.0098 28.0528C13.0098 27.5376 12.5573 27.12 11.9992 27.12Z" fill="#1E1E1E"/>
<path d="M6.48696 26.2209C6.0506 25.9977 5.49467 26.1338 5.24555 26.5255L4.03442 28.4298C3.78542 28.8213 3.9374 29.3197 4.37406 29.543C4.81077 29.7663 5.36641 29.63 5.61546 29.2384L6.8266 27.3341C7.07559 26.9427 6.92355 26.4442 6.48696 26.2209Z" fill="#1E1E1E"/>
<path d="M10.4942 15.8633C10.4406 15.8633 10.3886 15.8694 10.3383 15.8802C9.74438 15.9882 8.7002 16.5047 8.47224 17.7778C8.40196 18.1707 8.66677 18.5457 9.06375 18.6153C9.10682 18.6228 9.14965 18.6264 9.19195 18.6264C9.53929 18.6264 9.84722 18.3801 9.9099 18.0299C10.0136 17.4509 10.5157 17.3192 10.6153 17.2987L10.6042 17.3007L10.6039 17.2991C10.9549 17.2466 11.2241 16.9477 11.2241 16.5857C11.2242 16.1867 10.8974 15.8633 10.4942 15.8633Z" fill="#1E1E1E"/>
</svg>
