<svg width="32" height="32" viewBox="0 0 32 32" fill="none" xmlns="http://www.w3.org/2000/svg">
<path d="M30.9582 15.419C28.2029 11.9575 22.3693 7.91797 16.0026 7.91797C9.61308 7.91797 3.77932 11.985 1.04704 15.419C0.777289 15.758 0.777289 16.2463 1.04704 16.5853C3.86771 20.1305 9.7149 24.0864 16.0026 24.0864C22.5138 24.0864 28.3225 19.8966 30.9582 16.5854C31.228 16.2463 31.228 15.758 30.9582 15.419ZM22.0594 16.0022C22.0594 19.4459 19.3423 22.2476 16.0026 22.2476C12.6627 22.2476 9.94572 19.4457 9.94572 16.0022C9.94572 12.5584 12.6628 9.75671 16.0026 9.75671C19.3426 9.75677 22.0594 12.5588 22.0594 16.0022ZM2.94082 16.0024C3.94439 14.9269 6.36418 12.6058 9.76103 11.116C7.6293 14.0043 7.62847 17.9976 9.76002 20.8869C7.1773 19.7582 4.77807 17.9749 2.94082 16.0024ZM22.2442 20.8883C24.3759 18 24.3767 14.0067 22.2452 11.1174C24.8278 12.2461 27.2271 14.0294 29.0644 16.0018C28.0609 17.0775 25.6411 19.3985 22.2442 20.8883Z" fill="#1E1E1E"/>
<path d="M12.9697 16.0042C12.9697 17.6759 14.3297 19.0358 16.0013 19.0358C17.6729 19.0358 19.0329 17.6759 19.0329 16.0042C19.0329 14.3326 17.6729 12.9727 16.0013 12.9727C14.3297 12.9727 12.9697 14.3326 12.9697 16.0042ZM17.2496 16.0042C17.2496 16.6926 16.6896 17.2525 16.0013 17.2525C15.313 17.2525 14.753 16.6926 14.753 16.0042C14.753 15.3159 15.313 14.7559 16.0013 14.7559C16.6896 14.7559 17.2496 15.3159 17.2496 16.0042Z" fill="#1E1E1E"/>
<path d="M16.0037 4.89367C16.5618 4.89367 17.0142 4.47603 17.0142 3.96088V1.78436C17.0142 1.26921 16.5618 0.851562 16.0037 0.851562C15.4456 0.851562 14.9932 1.26921 14.9932 1.78436V3.96088C14.9932 4.47603 15.4456 4.89367 16.0037 4.89367Z" fill="#1E1E1E"/>
<path d="M21.514 5.7928C21.9504 6.01599 22.5063 5.87991 22.7554 5.48817L23.9666 3.58388C24.2156 3.19235 24.0636 2.69397 23.6269 2.47063C23.1902 2.24733 22.6346 2.38363 22.3855 2.77526L21.1744 4.67955C20.9254 5.07102 21.0774 5.56946 21.514 5.7928Z" fill="#1E1E1E"/>
<path d="M9.24978 5.4882C9.49877 5.87973 10.0545 6.01608 10.4912 5.79279C10.9278 5.56949 11.0798 5.07105 10.8308 4.67952L9.61969 2.7752C9.37069 2.38367 8.81482 2.24732 8.37828 2.47062C7.94168 2.69391 7.78964 3.19236 8.03864 3.58388L9.24978 5.4882Z" fill="#1E1E1E"/>
<path d="M16.0037 27.123C15.4456 27.123 14.9932 27.5407 14.9932 28.0558V30.2324C14.9932 30.7475 15.4456 31.1652 16.0037 31.1652C16.5618 31.1652 17.0142 30.7475 17.0142 30.2324V28.0558C17.0142 27.5407 16.5618 27.123 16.0037 27.123Z" fill="#1E1E1E"/>
<path d="M10.4912 26.2147C10.0546 25.9915 9.49882 26.1278 9.24976 26.5193L8.03864 28.4237C7.78964 28.8152 7.94168 29.3136 8.37828 29.5369C8.81493 29.7602 9.37068 29.6238 9.61968 29.2324L10.8308 27.328C11.0799 26.9365 10.9278 26.438 10.4912 26.2147Z" fill="#1E1E1E"/>
<path d="M22.7554 26.5193C22.5064 26.1278 21.9505 25.9915 21.514 26.2147C21.0774 26.438 20.9254 26.9364 21.1744 27.328L22.3855 29.2323C22.6345 29.6238 23.1902 29.7602 23.6269 29.5369C24.0635 29.3136 24.2156 28.8152 23.9666 28.4237L22.7554 26.5193Z" fill="#1E1E1E"/>
</svg>
