<?xml version="1.0" standalone="no"?>
<!DOCTYPE svg PUBLIC "-//W3C//DTD SVG 20010904//EN"
 "http://www.w3.org/TR/2001/REC-SVG-20010904/DTD/svg10.dtd">
<svg version="1.0" xmlns="http://www.w3.org/2000/svg"
 width="600.000000pt" height="600.000000pt" viewBox="0 0 600.000000 600.000000"
 preserveAspectRatio="xMidYMid meet">
<metadata>
Created by potrace 1.11, written by Peter Selinger 2001-2013
</metadata>
<g transform="translate(0.000000,600.000000) scale(0.100000,-0.100000)"
fill="#000000" stroke="none">
<path d="M2990 5594 c0 -6 -21 -48 -47 -93 -27 -45 -55 -93 -63 -109 -16 -28
-118 -205 -135 -234 -5 -9 -17 -29 -26 -45 -9 -15 -41 -72 -73 -127 -31 -54
-56 -102 -56 -107 0 -5 -4 -9 -8 -9 -4 0 -18 -19 -30 -42 -12 -24 -30 -56 -40
-73 -9 -16 -33 -57 -51 -90 -19 -33 -54 -93 -78 -132 -23 -40 -43 -75 -43 -78
0 -3 -15 -30 -32 -59 -18 -28 -38 -61 -45 -72 -7 -10 -24 -41 -39 -69 -15 -27
-32 -53 -38 -57 -6 -4 -7 -8 -2 -8 5 0 4 -6 -2 -12 -17 -21 -182 -310 -182
-319 0 -5 -4 -9 -9 -9 -5 0 -14 -12 -20 -27 -6 -16 -24 -50 -41 -78 -17 -27
-36 -62 -43 -77 -6 -16 -15 -28 -19 -28 -4 0 -8 -4 -8 -9 0 -5 -17 -38 -38
-72 -21 -35 -52 -89 -68 -119 -16 -30 -31 -57 -34 -60 -3 -3 -59 -99 -125
-214 -66 -115 -132 -230 -147 -255 -16 -25 -35 -61 -44 -80 -8 -19 -22 -40
-30 -48 -8 -8 -14 -21 -14 -29 0 -8 -3 -14 -7 -14 -5 0 -19 -23 -32 -50 -14
-28 -29 -50 -35 -50 -5 0 -6 -3 -3 -7 4 -3 3 -11 -2 -17 -9 -10 -84 -138 -139
-236 -51 -90 -60 -106 -98 -170 -21 -36 -45 -77 -54 -93 -39 -70 -145 -256
-165 -287 -12 -19 -22 -37 -22 -40 0 -3 -16 -30 -35 -60 -19 -30 -48 -80 -64
-110 -16 -30 -32 -56 -36 -58 -5 -2 -8 -8 -8 -13 0 -4 -21 -43 -46 -86 -26
-43 -54 -91 -64 -108 -9 -16 -41 -72 -71 -123 -30 -52 -63 -110 -75 -130 -49
-87 -148 -259 -171 -297 -7 -11 -18 -31 -25 -45 -7 -14 -27 -48 -45 -77 -18
-29 -33 -55 -33 -58 0 -4 -8 -19 -19 -33 -10 -15 -29 -47 -43 -72 -14 -25 -35
-62 -46 -82 l-22 -38 503 0 503 0 17 33 c9 17 21 39 27 47 10 16 94 161 128
221 33 59 324 562 343 594 10 17 23 39 29 50 5 11 23 43 39 70 16 28 36 61 44
75 7 14 55 97 107 185 51 88 103 178 115 200 39 71 96 170 104 180 5 6 25 42
46 80 20 39 44 77 51 86 8 8 14 19 14 23 0 3 32 61 71 129 40 67 83 142 97
167 14 25 29 47 34 48 4 2 8 12 8 22 0 9 7 23 15 30 8 7 15 16 15 21 0 5 12
28 26 50 14 23 37 62 51 87 15 26 34 61 44 77 23 38 68 116 104 180 15 28 47
83 71 122 24 40 44 75 44 77 0 2 33 60 73 127 40 68 76 131 80 139 4 8 21 38
37 65 17 28 36 61 43 75 6 14 14 27 17 30 11 10 90 153 90 163 0 5 7 4 15 -3
8 -7 15 -16 15 -20 0 -4 24 -47 53 -96 29 -49 67 -114 84 -144 16 -30 72 -127
123 -215 51 -88 102 -176 112 -195 11 -19 24 -39 28 -45 4 -5 21 -35 37 -65
66 -122 86 -156 99 -171 8 -8 14 -18 14 -22 0 -3 44 -82 98 -175 54 -93 102
-175 105 -183 4 -8 16 -29 28 -48 26 -43 164 -282 197 -341 13 -25 28 -49 32
-55 4 -5 19 -30 32 -55 26 -46 115 -200 162 -280 15 -25 33 -60 41 -78 9 -17
20 -32 25 -32 6 0 10 -8 10 -18 0 -10 4 -22 9 -27 14 -14 181 -307 181 -317 0
-4 5 -8 10 -8 6 0 10 -4 10 -9 0 -9 48 -97 86 -158 8 -13 13 -25 12 -27 -2 -2
4 -12 13 -22 9 -11 28 -39 41 -64 14 -25 60 -106 103 -180 43 -74 90 -156 104
-181 14 -26 49 -85 76 -133 l50 -86 498 0 c308 0 497 4 497 10 0 5 -32 64 -71
132 -40 67 -80 137 -90 155 -26 46 -41 71 -169 293 -62 107 -121 209 -130 225
-10 17 -33 57 -52 90 -19 33 -61 105 -93 160 -31 55 -65 114 -75 130 -9 17
-79 138 -155 270 -76 132 -168 291 -204 353 -36 62 -78 136 -93 163 -15 27
-36 63 -48 78 -11 16 -20 31 -20 34 0 3 -23 45 -51 94 -167 287 -229 396 -229
404 0 5 -4 9 -10 9 -5 0 -10 4 -10 10 0 5 -22 47 -50 94 -27 47 -50 89 -50 95
0 6 -4 11 -9 11 -5 0 -11 8 -14 18 -4 9 -17 35 -30 57 -13 22 -117 202 -232
400 -114 198 -214 371 -223 385 -9 14 -17 27 -17 30 0 3 -18 34 -39 70 -21 36
-52 90 -69 120 -16 30 -34 60 -39 67 -5 7 -17 27 -27 45 -10 18 -27 49 -38 68
-43 74 -236 407 -258 445 -12 22 -55 96 -95 165 -114 197 -136 234 -178 310
-14 25 -36 62 -49 82 -12 21 -23 42 -23 48 0 5 -4 10 -10 10 -5 0 -10 6 -10
13 -1 15 -39 66 -40 51z"/>
</g>
</svg>
